<?xml version="1.0" encoding="utf-8"?>
<!-- Generator: Adobe Illustrator 27.7.0, SVG Export Plug-In . SVG Version: 6.00 Build 0)  -->
<svg version="1.0" id="Layer_1" xmlns="http://www.w3.org/2000/svg" xmlns:xlink="http://www.w3.org/1999/xlink" x="0px" y="0px"
	 viewBox="0 0 4000 4000" enable-background="new 0 0 4000 4000" xml:space="preserve">
<g>
	<g>
		<path fill="#FFFFFF" d="M3446.6,2632.2c-17.5,4-46,23.5-48.7,41.7c-7.7-2.9-15.6-4.3-23.8-3.5c-5.5,0.5-11,2-16.7,4.7
			c-9.9,4.7-20.2,13-30.8,26c-0.2,0.2-0.4,0.4-0.6,0.7c-1.9-11.7-6.8-22.8-14-32.1c-12.5-16.4-32.2-27.2-55.6-25.8
			c-36.8,2.3-56.6,45.4-56.3,72.8c0.7,18.2,26.2,29.8,26.2,29.8s-51.3,18.2-51.3,56.6c-1.6,32.1,25.2,69.9,74.8,60.2
			c6.6,26.2,22.5,54.6,73.8,46.7c18.2-3.9,40.4-23.2,40.7-44.3c0,0,31.1,16.6,56.9-5.3c25.8-21.9,27.2-48.7,19.5-65.2
			c-7.6-16.6-21.5-21.2-21.5-21.2s28.1-12.9,32.1-32.8c3.9-19.9-9.3-32.5-9.3-32.5s42.3-9.6,45.7-50.3
			C3491.2,2628.5,3464.1,2628.2,3446.6,2632.2z M3263.6,2822.3c-14.2,23.3-19.9,25.5-37.1,22.5c-17.2-3-30.6-25.5-32.3-39.2
			c-1.7-13.7,12.6-38.1,41.8-42.1c36.1-4.8,60.8,9.4,60.8,9.4c-28.2,0-38.9,7.3-47,11.1c-8.1,3.8-12.3,14.1-5.9,16.4
			c6.3,2.3,12.7-6.4,23.5-11.7c10.8-5.3,25-6.5,25-6.5S3277.9,2799,3263.6,2822.3z M3309.3,2894.3c-28.6,0.7-44.7-20.6-36.3-46.2
			c3.8-10.8,21.2-35.9,30.4-49c3.6-4.9,5.9-8.1,5.9-8.1s-1,10.3-1.2,21.4c-0.3,12.8,0.4,26.4,4.7,26c4.7-0.5,7.4-14.7,8.7-26
			c0.9-7.7,1.2-14.1,1.2-14.1s4,5.9,8.8,14.1c6.5,11,14.5,26.2,16,36.2C3350,2866.1,3337.8,2893.6,3309.3,2894.3z M3423.7,2803.5
			c5.2,13.2-0.7,39.5-17.9,46.2c-17.1,6.7-32,5.2-41.5-15.9c-3.2-7.2-6.6-14.5-9.9-21.3c-2.9-5.9-5.9-11.5-8.7-16.5
			c-3.5-6-6.8-11-9.9-14.4c-0.6-1.2,2.3-5.6,18.3-6.7c4.4-0.3,9.9-0.4,16.5,0c0.2,0,0.5,0,0.7,0
			C3402.6,2776.7,3418.5,2790.3,3423.7,2803.5z M3423.5,2750.6c-10.2,8.2-33,6.7-43.7,6.9c-2.4,0.1-5.3,0-8.6,0
			c-4.9,0-10.7,0-16.5,0.6c-7.5,0.7-15.1,2.2-21.1,5.3c-4.7,2.2-8.7,3.9-12,5c-5.2,1.7-8.8,1.7-10.8-0.2c-1.2-1.2-2.8-3.6-5.3-6.4
			c-4-4.5-10.3-10.3-21-15c-17.4-7.7-47.4-11.9-54.6-15.4c-7.2-3.4-13.4-30.5-3.2-44.9c10.2-14.4,26.8-29.5,47.4-22.1
			c20.6,7.5,31.8,29.6,33.5,41.5c0.6,4,0.8,8.9,0.9,13.7c0.1,9.4-0.4,18.8,0.1,22.2c0.7,5.2,5,16,6.7,14.6c2.6-1.5,5.1-5.9,7.8-11.6
			c0,0,0,0,0,0c4.3-9,9.2-21.4,16.5-30.8c4.8-6.3,10.8-11.9,17.2-16.2c5.3-3.6,11-6.2,16.8-7.4c4.4-1,8.9-1.1,13.2-0.2
			c16.9,3.5,36.5,22.6,42.5,29.3C3435.1,2726.3,3433.6,2742.4,3423.5,2750.6z M3459.8,2674.1c-11.7,16.2-28.6,19.2-28.6,19.2
			c-11.2-7.6-20.4-13.7-20.4-13.7s4.8-9.9,21.7-21c16.9-11,36.2-7.8,36.2-7.8S3471.5,2657.8,3459.8,2674.1z"/>
		<path fill="#FFFFFF" d="M3370.1,2790.8c-1.5-3.9-9.3-6.6-16.2-8.1c-4.8-1-9.2-1.5-10.8-1.3c-4.1,0.4,2.2,7.7,9.6,11.2
			c0.3,0.1,0.6,0.3,0.9,0.5c6.6,3.2,8.8,5.5,8.8,5.5c3.2,1.8,6.4,1.2,7.6-2.2v0c0.4-1.1,0.6-2.6,0.5-4.4
			C3370.3,2791.5,3370.2,2791.1,3370.1,2790.8C3370.1,2790.8,3370.1,2790.8,3370.1,2790.8z"/>
		<path fill="#FFFFFF" d="M3372.5,2721.8c-4.5,0-10.3,1.5-16.7,5.7c-0.4,0.2-0.7,0.4-1.1,0.7c-14.2,9.9-28.6,25.6-21.8,27.1
			c6.3,1,15-5,22.3-10.7c5-3.9,9.4-7.6,11.8-8.7c1.5-0.7,3.3-1.3,5.1-2c5-1.7,9.9-3.2,9.5-7.1
			C3381.2,2724.1,3377.7,2721.8,3372.5,2721.8z"/>
		<path fill="#FFFFFF" d="M3285.3,2713.4c-8.9-12.1-16.7-15.4-20.4-7.6c-3.6,7.8,5.5,5.8,14.7,18.9c9.3,13.1,12.6,20,17,21.4
			c4.1,1.2,6.6,2,4.5-2.3C3299.1,2739.4,3294.3,2725.5,3285.3,2713.4z"/>
	</g>
	<g>
		<path fill="#FFFFFF" d="M3353.2,1509c-2.9,0-13.4-1.1-18-9c-3.1-6.1-3.5-15.1-3.7-18.1s0-5.3,0.4-6c1-2.3,9.9-5.4,14.6-6.2
			c4.7-0.9,10.6-0.6,12.6-0.4s8.2,4.7,9.6,8.3c1.4,3.6,2.4,6.1,4.1,16.5c1.7,10.4,1.7,16,0.6,21.5c-1.1,5.5-4.2,14.9-15.3,19.8
			c-11.1,5-21.7,4.8-31.1,4c-9.5-0.9-20.9-7.8-25.7-15.2c-4.8-7.4-9.5-19.9-8.5-32.2c1-12.3,6-25.6,13.3-34.9
			c7.2-9.3,19.6-20.6,35.9-23.4c15.8-2.8,29.1,1.8,34.5,3.6c5.4,1.7,18.7,10.9,25.5,21.4c6.8,10.6,10.2,17.9,11.3,25.5
			c1.1,7.6,0.9,22.6-2.3,34.4s-9.8,27.1-19.3,37.8c-9.5,10.7-22.4,16.1-24.1,16.9s-2.8,1.9-5.4,2c-2.7,0.1-12.6,4.5-15.3,5.6
			c-1.9,0.5-6.2-0.9-10.9,0.4c-4.7,1.2-6.9,2.2-10.3,2.7c-3.4,0.4-7.7,0.1-11.1-0.2c-3.4-0.4-11.3-0.2-15.4-1
			c-4.1-0.8-6-1.9-7.8-2.7c-1.8-0.8-2.9-4.4-4.7-5.2c-1.8-0.9-2.7,0.1-4.7-0.9c-2-0.9-3-2.4-5.7-2.5c-3.2-4.2-9.8-12-13.5-19.2
			c-3.7-7.2-4.6-14.7-5.7-16.4c-1.1-1.8-1.1-2.1-1.1-4.6c0-2.5-1.9-5.3-3.2-6.2c-1.3-0.9-0.6-4.6-0.5-5c0.1-0.4,1.1-1.3-0.2-3.4
			c-1.4-2.2,0-7.8-0.1-9.5c-0.1-1.7,1.5-8.9,2.4-14.1c0.9-5.2,2.4-15.9,2.7-17.1c0.3-1.1,2.2-0.1,2.9-0.8c0.8-0.7,4.2-7.2,5.9-9
			c1.7-1.8,1.2-2.9,1.1-4.1s0.6-4.4,2.5-6.6c-2.1,1.6-5.9,6.4-8,9.9c-0.5-2.4,3.7-10.4,6.8-15.4c3.2-5,11.3-13.8,15.5-18
			c4.2-4.2,9.6-8.7,10.9-9.3c1.3-0.6,4,0.6,6.4-1s4-3.7,4.2-3.9c0.3-0.1,6.2-0.4,7.5-0.4s1-4.6,1.1-4.8s9.7-4.2,15.2-6.1
			c5.5-1.9,12.1-2.2,16.2-2.4s14.7-0.1,24.3,2.5c9.6,2.6,20.5,5.9,20.5,5.9c-8-5.2-20-12.9-35.8-15.1c-13.6-1.1-25.7-0.6-33,1.9
			s-9.4,3.7-10.6,4.2c-1.2,0.5-6.7,1.9-10.2,4.6c-3.5,2.7-10.8,9.6-12.9,11.1c-2.1,1.5-4.7,2.7-5.6,3.4s2.4,0.6,2.4,0.6
			s-0.6,1-2,1.8c-1.4,0.8-1.9,0-3.4,0.9s-2,1.7-2,1.7s3.1,0.2,3.4,0.7c0.4,0.5-3.3,3.9-3.9,4.7c-0.6,0.8-2.6,0.8-2.9,1.4
			c-0.3,0.6-1.9,3-2.2,3.7c-0.3,0.6-2.1,0.7-2.4,0.5s0-1.8-0.3-2.4c-0.3-0.6-0.9-1.9,1.1-1.7c2,0.2-2.8-1.7-4.2-0.2s-5.2,5.7-7.5,10
			c-2.3,4.3-5.1,8.4-5.9,13.2c-1.7-0.4-3.4,0.9-3.9,2.9c-0.4,1.9-2.9,6.2-2.8,9.2c0.1,2.9-1.9,6.1-1.9,8.6c0,2.5-2.6,13.9-2.7,19.6
			s-1.3,10.6-0.4,17.6c0.8,7,2.7,15.2,3.1,17.5s2.6,5.9,1.9,9.7c-1.6-1.8-2.2-5.6-2.2-5.6c-0.7,0.4-1,2.8,1.6,9
			c2.6,6.2,6.1,14.4,8.8,18.5c2.7,4.2,4.5,8.1,9.6,11.6c5,3.5,9.3,5.4,13.9,8.3c4.6,2.9,7.3,6.3,17.2,9.1c9.8,2.8,20.7,3.7,26.4,3.7
			c0.3-2.3,1.5-3.4,5.3-2.9c3.8,0.6,13.4-0.1,20.8-0.4c7.5-0.3,11.7-0.9,16.4-2.2c4.7-1.4,13.6-4.8,19.4-6.6
			c5.7-1.8,12.6-6.2,17.1-9.6s20.6-18.3,26.2-34.7c5.1-15.3,5.6-26.9,5-37.4c-0.6-10.4-3.7-26.1-14.8-40.8s-21.4-27.1-43.3-33.7
			c-16.1-3.6-28.8-2.9-40.8,1.1c-12.1,4-28,19.3-32.4,24.8s-11.7,18.6-13.8,32.9c-2,14.2,0,25,4.1,34.5c4.1,9.5,17.7,28.2,41.2,30.7
			c17.6,1.6,26.2-1.2,30.7-1.7c4.5-0.5,11.2-2.9,21.7-21.5c7.8-15.1,5.4-27.4,5.1-30.2c-0.3-2.8-1.1-11.7-3.2-17.7
			c-2.2-5.9-6-11.9-15.2-16.8s-16.2-6-28.4-2.5c-8.8,3.2-11,5.7-11.9,8.8c-0.9,3-0.4,8.6,0.1,14.7c0.5,6,0.4,12.6,3.2,16.5
			c2.8,4,8.3,8.7,13.3,9.5S3353.5,1511.4,3353.2,1509z"/>
		<path fill="#FFFFFF" d="M3437.4,1463.5c-0.1-0.7-5.2-0.6-5.7-1.2c-0.5-0.5-0.6-2.7,1.4-2.9c2-0.2,6.2-0.7,9.4-2.6
			c3.3-1.8,5.5-3,6.5-3.2s7.5-0.4,13-0.6s20.1-1.8,26.9-2.5c6.8-0.7,16.4-3.5,19.7-2.7c-2.9,2-12.2,5.6-22.8,9.8
			c-10.6,4.2-20,8-32.3,11.2c-12.3,3.2-17.2,2.5-18.6,1.1C3433.4,1468.5,3437.6,1465,3437.4,1463.5z"/>
		<path fill="#FFFFFF" d="M3430.1,1428.8c1-1.5,8.1-12.6,13-18.2s13.9-14.1,21.7-20.6s14.1-10.9,17.6-13.4s4.5-3.7,4-5
			s-6.2-1-13,3.2c-6.8,4.2-9.9,4.7-20.4,14c-10.4,8.5-17.8,15-20.5,16.9c-2.7,1.9-8,6.4-9.8,7.5c-1.9,1.1-3,1.9-4,1.9
			s-4.3,0.3-5.4,1.1c-1.1,0.8-1.7,2.2-2.9,2.5c-1.2,0.4-5,2.1-5.3,2.4c-0.4,0.4,2.6,0.2,3.8,1.6s1.4,4,1.1,4.3
			c-0.2,0.4-4.5,3.1-4.5,3.1s1.3-0.1,1.7,1c0.4,1.1,0.8,3.2,1.2,3.4c0.4,0.2,4.5,1.1,7.7-0.6
			C3419.2,1432.3,3429.3,1429.4,3430.1,1428.8z"/>
		<path fill="#FFFFFF" d="M3382,1397.5c0,0,8.7-7.7,9.4-8.4c0.7-0.7,7-18.7,10.1-28.4c3.1-9.6,11-36.8,11-36.8
			c-12.9,19.2-19.4,36.7-24.6,47.9S3381.8,1393.2,3382,1397.5z"/>
		<path fill="#FFFFFF" d="M3348.3,1393c-1,0.8-4-0.3-5-1.9c-1-1.7-1.7-5.5-2.5-6.1s-1,1.4-2.2,1.3c-1.1-0.1-1.6-1.3-2.4-1.4
			s-1.7-3.8-2.3-10.4c-0.6-6.5-1.4-24.3-1.2-33.9c0.2-9.6,0.2-29.4,0.4-30.1c0.2-0.6,1.3,8.7,1.2,9c-0.1,0.3,0.2-4.8,0.6-5.4
			s1.3,5.3,1.4,6.4c0.1,1.1-0.3-14.7,0-16.4c0.3-1.7,1.4,6.7,2.4,14.7s4.1,21.3,4.4,25.1c0.3,3.8,0.7,11.6,1.1,12.9
			c0.4,1.4,1.9,0.3,1.9,1c0,0.7,0.8,4.5,0.8,4.5l-1.9-0.1c0,0,0.4,6.5,1.5,10.3s3.3,8.1,3.5,9.3c0.2,1.2,0,4.9,0,4.9s-1.6,0-1.9,1.4
			S3347.9,1391.8,3348.3,1393z"/>
		<path fill="#FFFFFF" d="M3285.5,1395.6c1.8,1.2,4.4-0.4,5.2-1.5c0.9-1.1,0.6-3.4,0.3-4.1c-0.4-0.6-0.8-3.9-0.8-3.9l-1.2,1.1
			c0,0-6.5-9.6-11.1-17.9c-4.7-8.3-9.5-16.9-12.9-23.8c-3.4-6.8-7.8-17.3-7.8-17.3s4.6,14.1,5.5,18.5c0.9,4.4,2.9,10.8,2.9,10.8
			l-3.6-7c0,0,4.2,12.6,7.2,20.3C3272.2,1378.7,3278.9,1391.2,3285.5,1395.6z"/>
		<path fill="#FFFFFF" d="M3245.5,1436.8c0.8,0.2,4.6-0.5,6-1.3c1.4-0.8,0.6-2.7,0-3.4s-4.5-1.4-4.5-1.8c-0.1-0.4-0.1-1,0.6-1
			s2.2,0,2.2,0s0-2.4-0.9-3.1c-0.9-0.6-3.2-0.5-3.8-1.1c-0.5-0.6,0.2-1.8,0-2.4c-0.2-0.6-3.8,0.5-7.1,0.3s-11.7-4.5-16.9-8.9
			s-13.3-10.8-14.3-11.8c-1-1-1.5,0.8-3.2-0.4c-1.8-1.1-7.3-6.4-8.1-6.7c-0.8-0.3,5.7,8.7,7.3,9.8c1.6,1.1,10.3,8.9,10.5,10
			c0.2,1.1-7.9-5.7-8.6-5.9s8.1,7.9,7.4,9.1c-0.7,1.2-9-8.3-9.9-8.4c-0.8-0.1,5.3,7.2,9.9,11.9c4.6,4.7,7.1,8,11.3,12.2
			s11.8,8.9,14.7,10.6c2.9,1.7,6.6,2.3,6.6,1.9c0-0.4,1.9-2.7,0.9-4.6C3244.7,1439.8,3245.5,1436.8,3245.5,1436.8z"/>
		<path fill="#FFFFFF" d="M3233.1,1484.4c-0.8-1.6,0.6-2.9,1.7-3.7c1-0.8,1.3-2.2-0.2-3.3c-1.5-1.1-6.4-2.4-7-3.9
			c-0.6-1.5,0.9-1.8,1.2-2.9c0.3-1.1-0.6-4.3-1.4-3.3c-0.8,1,0.3,3.1-1.1,2.4c-1.4-0.6-4.6-0.1-5,0.4c-0.4,0.5-0.2,1.6-1.9,1.3
			c-1.8-0.3-18.4-0.1-22.6-0.4c-4.2-0.3-21-0.2-30.1-1.9c-9.1-1.7-29-6.8-29.3-6.8s2.9,2.9,8.4,4.3c5.5,1.4,13.7,6.2,29.4,9.2
			c-1.4,0.1-10.8-0.6-12.1-0.4s4.2,3.1,13.6,5.4c9.4,2.3,17,4.2,35.6,4S3233.1,1484.4,3233.1,1484.4z"/>
		<path fill="#FFFFFF" d="M3231.2,1531.1c-1.1-0.5,1.8-2.2,1.9-2.9s-2.6-4-3.4-4.5c-0.8-0.5-0.8,1.1-2.9,0.9
			c-2.2-0.1-8.3-0.8-9.3-0.6c-1.1,0.2-2.5,1.5-1.8,1.7c0.7,0.1-3.7,1.1-7.1,3.2c-3.4,2-6.9,5.3-8.9,6c-2,0.7-1.1,2.2-4.5,3.2
			s-11,5.4-13.4,6.3c-2.4,0.9-3.6,1.9-5.2,2.3s-1.7-1.1-2.8-1c-1.1,0.1-0.1,2.4-1.7,3c-1.6,0.6-3.5-1-4,0s0.1,2-0.6,2.3
			c-0.7,0.3-5.3,1.6-5.3,1.6s3.1-0.4,3.1,0c0,0.4-15.5,10.3-16.1,10.6c-0.6,0.4,18.1-1.7,19.5-1.9c1.4-0.1-11.9,5.2-10.3,5.2
			s21.8-2.7,31.3-6.2c9.5-3.5,21.8-8.1,27.1-10.1c5.2-1.9,15-2.9,17.1-7c2.1-4.2,0.2-6.1,0.8-6.8c0.6-0.6,1.4-0.1,1.4-2
			s-1.9-4-2.2-4C3233.4,1530.4,3231.5,1531.2,3231.2,1531.1z"/>
		<path fill="#FFFFFF" d="M3261.1,1590.8c-1,0.8-15.1,14.2-25.1,24.3s-31.7,29.9-32.8,30.5c-1.1,0.5,8.4-8.3,7.3-8.6
			c-1.1-0.3-8.1,7.2-10.4,8.1c-2.3,0.9,3.4-4.1,2.7-5c-0.7-0.9-14.2,10-15.8,10.3c-1.6,0.4,9-8.4,9.1-8.8c0.1-0.4-1.7-0.6-1.9-1.2
			c-0.2-0.6,22.9-28.3,35.9-41.7c13-13.4,22-19.4,22.1-20c0.1-0.6-0.3-2.2,1.5-3c1.8-0.8,5,4.3,5,5.8c-0.3,1.6,0.1,4.7,1.5,6
			C3261.8,1588.7,3262.1,1590.2,3261.1,1590.8z"/>
		<path fill="#FFFFFF" d="M3314.8,1623.1c0.8,0.6,3.3-0.1,3.3-0.8c0.1-0.7-0.3-2.4,0.5-3.1c0.8-0.7,1.6-1.2,1.6-1.5
			c0-0.3-2.3-2.7-2.7-3.3s-1.8-4.3-4.2-6.5c-2.5-2.2-4.2-3.8-5.4-4.3c-1.2-0.4-4.4,2.1-4.5,2.9c-0.1,0.8,1,1.8,1,2.5
			s-5.4,11.3-6.8,15.4s-6,14.3-8.9,22.7c-2.9,8.4-9.3,26.9-11,31.9c-1.7,5-8.2,24.2-8.7,25.9c-0.5,1.7,0.6,2.4,1.5,2.3
			c0.9,0,8.8-9.7,10-14s6-16,7.8-19.8c1.7-3.7,10.4-22.9,14.7-30.6C3307.2,1635.4,3314.8,1623.1,3314.8,1623.1z"/>
		<path fill="#FFFFFF" d="M3368.8,1603.6c0.5-1,4.7-2.9,9.6-3.6c4.9-0.7,8,0.1,8.5,0.9s0.6,5.6,1,6.1s1.7-0.8,1.7-0.3
			c0,0.5,0.2,5.2-0.5,5.8c-0.7,0.6-0.5,4.8,0.1,7.6s3.6,13.9,4.5,25.7c0.9,11.9,0.6,18,0.6,18s-6.2-6.5-11.2-21.3
			c-5-14.9-8.7-25.8-10.9-31.1C3369.9,1606,3368.8,1603.6,3368.8,1603.6z"/>
		<path fill="#FFFFFF" d="M3427.2,1562.8c-1.7-0.1-4.7,0.6-4.7,1.7s5.4,6.6,11.1,10.7s23.5,12.1,28.9,14.9
			c5.4,2.7,11.5,6.4,11.5,6.4s-3.9-11.2-10-16.9s-5.8-5.6-8.5-6.6c-2.7-1.1-8.4-4.8-11.3-6.9c-2.9-2.1-6-4.2-9.1-4.9
			c-3.1-0.7-10-0.4-9.3,0.5C3426.3,1562.6,3427.2,1562.8,3427.2,1562.8z"/>
		<path fill="#FFFFFF" d="M3438.9,1510.2c0,0,7.4,10.1,16.8,12.3c9.4,2.2,29,4,37,3c8-1,26.1,2.2,27.9,2c-0.9-3.8-5.1-8.6-14.3-11
			s-34.6-3.1-38.4-3.8c-3.8-0.6-11.3-2.6-17.1-4.5C3445,1506.3,3438.9,1510.2,3438.9,1510.2z"/>
	</g>
	<g>
		<path fill="#FFFFFF" d="M1713.7,1953.7l1.3,15.4c1.9,23.2,2.8,43.2,2.8,59.6v0.7c-0.6,1.2-0.9,2.5-0.9,3.9c0,1.3,0.3,2.5,0.8,3.7
			c1.3,3.3,4.2,5.2,8,5.2h0h0c16.5-0.1,29.5-7.6,38.6-22.2c7.3-11.6,11.4-26.3,12.3-43.5c0.1-1.2,0.1-2.4,0.1-3.5
			c0-15.9-5.3-31.3-15.6-45.7c-10.7-14.9-24.5-25.4-40.9-31.4c-1.1-0.4-2.2-0.6-3.3-0.6c-2.9,0-5.3,1.5-6.7,4.2
			c-0.9,1.6-1.3,3.2-1.3,4.8c0,1.4,0.4,2.8,1.1,4.2c0.6,7.5,1.4,17.5,2.5,30L1713.7,1953.7z M1735.6,2022.6
			c-0.2-14.9-1-32.6-2.6-52.7l-1.2-14.3l-1.3-14.3c-0.8-8.6-1.4-15.7-1.8-21.4c7,4.7,13,10.7,18.1,18c6.4,9.3,10.3,19.4,11.7,30.1
			c0.4,3,0.6,6,0.6,8.9c0,8.8-1.7,17.4-5.2,25.6C1749.4,2013.1,1743.4,2019.6,1735.6,2022.6z"/>
		<path fill="#FFFFFF" d="M1863.1,2031.4c-1.7-9.1-3.1-20-4.2-32.5c-0.4-4.3-0.8-9.8-1.3-16.5l-1.3-16.6c-2-27.6-5.7-49.8-10.8-66.1
			c-1.3-3.9-4.4-6.2-8.6-6.2c0,0,0,0,0,0c-3.9,0.1-7,2.2-8.5,6c-6.4,16-13.5,37.6-21.1,64.2l-4.7,16.2l-4.6,16.2
			c-3.6,12.3-7,23-9.9,32c-0.3,1-0.5,1.9-0.5,2.9c0,1.5,0.4,2.9,1.2,4.2c1.1,1.8,3,3.1,5.1,3.7c1,0.3,1.9,0.5,2.8,0.5
			c1.4,0,2.6-0.3,3.7-0.8c2.2-1.1,3.9-2.9,4.7-5.4c2.6-7.9,5.5-17.2,8.7-27.9c8.8-0.5,18.1-0.7,27.6-0.7c1.1,11.8,2.5,22.1,4.1,30.7
			c0.6,3.4,2.6,5.1,4.2,6c1.2,0.6,2.5,0.9,3.9,0.9c0.8,0,1.6-0.1,2.5-0.3c2.2-0.6,3.9-1.9,5.2-3.6c1.1-1.5,1.7-3.2,1.7-5.1
			C1863.2,2032.6,1863.2,2032,1863.1,2031.4z M1822.9,1974.2l5.3-18c2.4-8,4.7-15.4,6.9-22.2c1,6.5,1.9,13.5,2.6,21.1
			c0.5,4.9,1,10.9,1.6,17.7l1,13.9c-7.1,0-14.2,0.2-21.1,0.5L1822.9,1974.2z"/>
		<path fill="#FFFFFF" d="M1972,2017.8c0.7-3.8,1.2-8.5,1.5-14l0.2-6c0.1-2.2,0.2-3.8,0.3-4.7c0.7-9.7,1.1-20.6,1.1-32.3
			c0-3.3,0-6.8-0.1-10.3c-0.1-6.3-0.2-13.4-0.5-21.3l-0.8-21.2c-0.1-2.6-1.1-4.8-3.1-6.5c-1.7-1.4-3.7-2.1-6-2.1
			c-2.3,0-4.4,0.8-6,2.3c-1.7,1.6-2.6,3.8-2.6,6.2v0.4l0.5,14l0.6,14c0.3,9.2,0.5,17.5,0.5,24.5v3.5c-0.1,21-1.7,39.5-4.9,54.9
			c0,0.2-0.1,0.3-0.1,0.4c-0.5-0.7-1-1.5-1.7-2.6c-1.3-2.1-2.6-4.7-3.8-7.5l-3.3-8.3c-1.3-3.5-2.9-8.4-4.8-14.7l-4.7-14.9
			c-1.3-3.9-4.3-6.2-8.3-6.2l-0.8,0c-4.2,0.2-7.2,2.4-8.2,6.1c-2.5,5.7-4.2,13.6-5.1,23.9l-1.2,12c-0.4,4.4-1,8.1-1.7,11l0,0.1
			c-0.4-1-0.7-2.1-1-3.2c-0.4-1.3-0.9-2.9-1.3-4.7l-1.2-5.1c-6.2-25.7-10.4-58-12.5-96.1c-0.1-2.7-1.2-4.9-3.1-6.5
			c-1.7-1.4-3.7-2.1-6-2.1c-2.3,0-4.4,0.8-5.9,2.2c-1.2,1.1-2.7,3.1-2.7,6.3l0,0.5c0.8,14.4,2.5,32.5,5.2,53.8l2,15.5
			c0.8,5.9,1.6,11.3,2.5,15.9c2.1,11.9,4.8,22.3,8.1,31.1c2.3,6.2,5.7,10.8,10.1,13.8c2.4,1.6,4.8,2.4,7.1,2.4
			c3.9,0,7.4-2.1,10.5-6.1c4-5.2,6.5-12.2,7.5-20.6c0.1-0.7,0.2-1.4,0.2-2.2c2,5.1,4.1,9.4,6.1,13c5.6,9.4,11.9,14.2,18.9,14.2
			c1.5,0,3-0.2,4.4-0.6C1964.9,2037.9,1969.7,2030.5,1972,2017.8z"/>
		<path fill="#FFFFFF" d="M2057.1,1998.5l-0.8-34c-0.7-27.5-1.7-50.3-2.8-68c-0.2-2.5-1.3-4.7-3.2-6.4c-1.7-1.4-3.7-2.1-6-2.1
			c-2.3,0-4.4,0.8-5.9,2.2c-1.2,1-2.7,2.9-2.7,6.1l0,0.7c1,15.8,1.9,35.2,2.5,57.5l0.7,28.9l0.3,12.4c-13.8-29-24.8-61.2-32.8-96.1
			c-1.1-4.2-4-6.6-8-6.6c-0.6,0-1.2,0.1-1.8,0.2c-4.7,0.8-7.5,3.9-7.8,8.5c-0.4,7.9-0.6,16.3-0.6,25.1c0,12,0.4,25.1,1.1,38.9
			c0.4,8.7,1.1,19.4,2,31.9l2.3,31.5c0.1,2.7,1.2,5,3.2,6.5c1.7,1.4,3.7,2.1,6,2.1c2.3,0,4.4-0.8,5.9-2.2c1.2-1,2.6-2.9,2.6-6.1
			l0-0.7l-3.1-44.3c-0.4-6.6-0.8-12.9-1.1-18.8c9.6,26.3,21.1,50.5,34.3,72.2c1.4,2.4,3.5,3.8,6,4.2c0.5,0.1,1,0.2,1.4,0.2
			c1.8,0,3.4-0.5,5-1.5c0.7-0.4,1.3-0.8,1.8-1.4h0.7l1.1-2.7c0.5-1.1,0.7-2.2,0.7-3.3c0-0.5,0-0.9-0.1-1.4
			C2057.7,2022.9,2057.4,2011.6,2057.1,1998.5z"/>
		<path fill="#FFFFFF" d="M2121.5,2031.9c0.5-1.2,0.8-2.5,0.8-3.8c0-0.8-0.1-1.7-0.3-2.6c-0.6-2.2-1.8-3.9-3.6-5.2
			c-1.4-0.9-2.9-1.4-4.6-1.4c-1,0-1.9,0.2-2.6,0.4c-7.4,2.1-15.1,3.6-22.8,4.4c0.5-9.8,1.1-21.8,1.7-35.7h23.1c2.6,0,4.9-1,6.6-2.9
			c1.4-1.6,2.2-3.7,2.2-6c0-2.3-0.8-4.4-2.2-6c-1.7-1.9-3.9-2.9-6.6-2.9h-22.4c0.9-22.8,1.9-41.6,3.1-56l3.6,0.2l7.3,0.6
			c6,0.5,11,0.7,15.1,0.8c2.5,0,4.7-1,6.1-2.7c1.5-1.6,2.3-3.7,2.3-6c0-2.3-0.8-4.4-2.1-6c-1.6-1.9-3.8-3-6.5-3.1
			c-2.5-0.1-5.3-0.2-8.3-0.4l-8.5-0.7c-7.6-0.6-13.4-0.9-17.5-1c-2.4,0-4.6,1-6.1,2.7c-1.5,1.6-2.3,3.5-2.5,5.8
			c-1.4,16-2.7,37.6-3.8,64.4l-1.3,32.1c-0.6,11.9-1.2,22.7-1.8,32l0,0.4c0,2.4,0.9,4.5,2.7,6.2c1.8,1.7,3.9,2.6,6.2,2.6h0h0
			c12.5-0.3,24.9-2.2,37-5.6C2118.6,2035.9,2120.5,2034.2,2121.5,2031.9z"/>
		<path fill="#FFFFFF" d="M2158.2,1929.1l0.4-13.1l0.3-13.6c0-2.5-1-4.7-2.8-6.3c-1.6-1.4-3.7-2.2-6-2.2c-2.2,0-4.2,0.7-6,2.2
			c-1.9,1.7-2.9,3.9-2.9,6.5l-0.4,13.2l-0.3,13.2c0,3.4,1.5,5.5,2.8,6.6c1.6,1.4,3.7,2.2,6,2.2c2.3,0,4.4-0.8,5.9-2.1
			C2157.2,1934,2158.2,1931.7,2158.2,1929.1z"/>
		<path fill="#FFFFFF" d="M2228.3,1905.8c-5.5-7.9-12-11.9-19.3-11.9c-0.5,0-1.1,0-1.6,0.1c-8.8,0.7-16,4.7-21.3,11.7
			c-4.8,6.3-7.2,14-7.3,23.1c0,7.2,3,15.3,9.1,23.9c1.1,1.5,2.4,3.2,3.9,5.1l3.8,4.8c3.1,3.9,5.4,7,6.7,9.2c6.4,10,9.6,19.5,9.6,28
			c0,4.7-1,9.2-2.9,13.5c-0.7,1.7-1.7,3.3-2.8,4.9c-1.3,1.8-2.7,3.3-4.1,4.4c-1.6,1.1-3,1.7-4.3,1.7c-1.2,0-2.4-0.5-3.8-1.7
			c-1.4-1.2-2.6-3-3.6-5.6c-0.4-1-0.8-2.2-1.2-3.8l-0.5-1.8l-0.5-2.1c-0.8-2.6-2.4-4.5-4.7-5.5c-1.2-0.5-2.5-0.8-3.8-0.8
			c-0.8,0-1.7,0.1-2.6,0.3c-2.2,0.6-4,1.9-5.3,3.8c-0.9,1.4-1.3,3-1.3,4.6c0,0.8,0.1,1.6,0.3,2.4c5,18.4,14.4,27.9,27.9,28.1h0.3
			c8.1,0,15.3-4.5,21.7-13.4c5.4-7.6,8.4-15.6,8.9-23.6c0.1-1.4,0.1-2.7,0.1-4c0-16.2-6.4-32.6-19.2-48.9l-2.9-3.4l-2.8-3.5
			c-2-2.6-3.6-5-4.7-7.1c-2.3-4-3.4-8.1-3.4-12.1c0-1,0.1-1.9,0.3-3c0.7-4.4,2.7-7.4,6.5-9.3c1.4-0.7,2.8-1.1,4-1.1
			c1.9,0,3.8,0.9,5.7,2.8c1.6,1.5,3.1,3.8,4.2,6.8c0.5,1.2,0.9,2.7,1.4,4.4c0.3,1.1,0.6,2.6,1.1,4.6c0.6,2.6,2.1,4.5,4.4,5.7
			c1.2,0.6,2.4,0.9,3.7,0.9c0.9,0,1.9-0.2,2.5-0.4c2.2-0.5,4.1-1.8,5.5-3.7c1-1.5,1.5-3.2,1.5-4.9c0-0.5,0-1.1-0.2-2.1
			C2235.4,1918.9,2232.4,1911.8,2228.3,1905.8z"/>
		<path fill="#FFFFFF" d="M1688.8,2098c-5.5-7.9-12-11.9-19.3-11.9c-0.5,0-1.1,0-1.6,0.1c-8.8,0.7-16,4.7-21.3,11.7
			c-4.8,6.3-7.2,14-7.3,23.1c0,7.2,3,15.3,9.1,23.9c1.1,1.5,2.4,3.2,3.9,5.1l3.8,4.8c3.1,3.9,5.4,7,6.7,9.2c6.4,10,9.6,19.5,9.6,28
			c0,4.7-1,9.2-2.9,13.5c-0.7,1.7-1.7,3.3-2.8,4.9c-1.3,1.8-2.7,3.3-4.1,4.4c-1.6,1.1-3,1.7-4.3,1.7c-1.2,0-2.4-0.5-3.8-1.7
			c-1.4-1.2-2.6-3-3.6-5.6c-0.4-1-0.8-2.2-1.2-3.8l-0.5-1.8l-0.5-2.1c-0.8-2.6-2.4-4.5-4.7-5.5c-1.2-0.5-2.5-0.8-3.8-0.8
			c-0.8,0-1.7,0.1-2.6,0.3c-2.2,0.6-4,1.9-5.3,3.8c-0.9,1.4-1.3,3-1.3,4.6c0,0.8,0.1,1.6,0.3,2.4c5,18.4,14.4,27.9,27.9,28.1h0.3
			c8.1,0,15.3-4.5,21.7-13.4c5.4-7.6,8.4-15.6,8.9-23.6c0.1-1.4,0.1-2.7,0.1-4c0-16.2-6.4-32.6-19.2-48.9l-2.9-3.4l-2.8-3.5
			c-2-2.6-3.6-5-4.7-7.1c-2.3-4-3.4-8.1-3.4-12.1c0-1,0.1-1.9,0.3-3c0.7-4.4,2.7-7.4,6.5-9.3c1.4-0.7,2.8-1.1,4-1.1
			c1.9,0,3.8,0.9,5.7,2.8c1.6,1.5,3.1,3.8,4.2,6.8c0.5,1.2,0.9,2.7,1.4,4.4c0.3,1.1,0.6,2.6,1.1,4.6c0.6,2.6,2.1,4.5,4.4,5.7
			c1.2,0.6,2.4,0.9,3.7,0.9c0.9,0,1.9-0.2,2.5-0.4c2.2-0.5,4.1-1.8,5.5-3.7c1-1.5,1.5-3.2,1.5-4.9c0-0.5,0-1.1-0.2-2.1
			C1695.9,2111.1,1692.9,2104,1688.8,2098z"/>
		<path fill="#FFFFFF" d="M1765.6,2107.5c-2.7-4.4-5.8-7.9-9.2-10.5c-4.3-3.3-8.8-5-13.6-5l-0.4,0c-6,0.2-11.4,3.2-15.8,9.1
			c-1.6,2.1-3.2,4.6-4.7,7.5c-0.9,2-2,4.4-3.2,7.3c-5.5,15-8.3,31.2-8.3,48.1c0,1.9,0,3.7,0.1,5.6c0.7,21.6,6.1,39.2,15.9,52.1
			c5.4,7.1,11.5,10.7,18.3,10.7c1.8,0,3.5-0.2,5.3-0.7c1.9-0.5,3.9-1.4,5.6-2.4c9.1-4.8,16.1-13.1,20.9-24.9
			c2.3-5.7,3.8-11.1,4.4-15.9c1-6,1.5-12.3,1.5-18.6c0-7.6-0.7-15.5-2.2-23.4C1777.4,2131.9,1772.5,2118.8,1765.6,2107.5z
			 M1735.3,2121.4l0.5-1.1l0.3-0.9c0.4-0.9,0.7-1.7,1-2.3c0.9-1.9,1.7-3.4,2.6-4.6c1.4-1.9,2.8-3.1,3.7-3.1c0.2,0,0.5,0.1,0.6,0.1
			c2.1,0.9,4.2,2.9,6.1,5.9c0.8,1.2,1.7,2.8,2.6,4.5l1.2,2.4l1.1,2.1c4.4,9.2,7.4,19.6,8.9,30.8c0.7,5,1,10.1,1,15
			c0,5.7-0.5,11.4-1.4,17c-1.7,10.1-5.4,18.1-11.2,23.8c-2.2,2.2-4.2,3.4-6.1,3.4c-1,0-2-0.3-3.1-1c-2.8-1.7-5.4-5.4-7.6-10.9
			c-4.9-11.7-7.3-25.1-7.3-40v-0.6C1728.3,2147.5,1730.7,2133.8,1735.3,2121.4z"/>
		<path fill="#FFFFFF" d="M1841.2,2216.6c-2.3-0.2-5.1-0.3-8.3-0.4l-8-0.2c-4.9-0.1-9.1-0.3-12.5-0.7c0.1-26.9,2.7-66.2,7.7-117.2
			v-0.6c0-2.3-0.8-4.3-2.6-6c-1.6-1.4-3.6-2.1-5.9-2.1c-2.3,0-4.3,0.7-6,2c-1.9,1.5-3.1,3.6-3.4,6.2c-5.1,52.6-7.7,93.4-7.7,121.3v4
			c0.1,4.5,2.6,7.6,6.8,8.5c5.3,1.2,12,2,20.1,2.2l4.8,0.1l5,0.2c3.7,0.1,6.9,0.2,9.8,0.5h0.5c3.2,0,5.1-1.4,6-2.5
			c1.5-1.6,2.3-3.7,2.3-6c0-2.2-0.7-4.2-2-6C1846.1,2218,1843.8,2216.8,1841.2,2216.6z"/>
		<path fill="#FFFFFF" d="M1911.5,2090.3c-2.5-0.1-5.3-0.2-8.3-0.4l-8.5-0.7c-7.6-0.6-13.4-0.9-17.5-1c-2.4,0-4.6,1-6.1,2.7
			c-1.5,1.6-2.3,3.5-2.5,5.8c-1.4,16-2.7,37.6-3.8,64.4l-1.3,32.1c-0.6,11.9-1.2,22.7-1.8,32l0,0.4c0,2.4,0.9,4.5,2.7,6.2
			c1.8,1.7,3.9,2.6,6.2,2.6h0h0c12.5-0.3,24.9-2.2,37-5.6c2.6-0.8,4.5-2.4,5.5-4.7c0.5-1.2,0.8-2.5,0.8-3.8c0-0.8-0.1-1.7-0.3-2.6
			c-0.6-2.2-1.8-3.9-3.6-5.2c-1.4-0.9-2.9-1.4-4.6-1.4c-1,0-1.9,0.2-2.6,0.4c-7.4,2.1-15.1,3.6-22.8,4.4c0.5-9.8,1.1-21.8,1.7-35.7
			h23.1c2.6,0,4.9-1,6.6-2.9c1.4-1.6,2.2-3.7,2.2-6c0-2.3-0.8-4.4-2.2-6c-1.7-1.9-3.9-2.9-6.6-2.9h-22.4c0.9-22.8,1.9-41.6,3.1-56
			l3.6,0.2l7.3,0.6c6,0.5,11,0.7,15.1,0.8c2.5,0,4.7-1,6.1-2.7c1.5-1.6,2.3-3.7,2.3-6c0-2.3-0.8-4.4-2.1-6
			C1916.4,2091.5,1914.2,2090.4,1911.5,2090.3z"/>
		<path fill="#FFFFFF" d="M1943.2,2089.8c-2.3,0-4.4,0.8-6,2.1c-2,1.6-3,3.9-3,6.6c-0.1,9.4-0.2,19.9-0.4,31.7l-0.7,31.8
			c-0.6,27.7-0.9,49.1-1,63.7c0,2.7,1,5,2.9,6.6c1.6,1.4,3.7,2.2,5.9,2.2c2.3,0,4.4-0.8,5.9-2.1c2-1.6,3-3.9,3-6.6
			c0.1-14.5,0.4-35.9,1-63.5l0.7-31.9c0.2-11.8,0.3-22.4,0.4-31.8c0-3.4-1.5-5.4-2.8-6.6C1947.6,2090.6,1945.5,2089.8,1943.2,2089.8
			z"/>
		<path fill="#FFFFFF" d="M2010.5,2216.6c-2.3-0.2-5.1-0.3-8.3-0.4l-8-0.2c-4.9-0.1-9.1-0.3-12.5-0.7c0.1-26.9,2.7-66.2,7.7-117.2
			v-0.6c0-2.3-0.8-4.3-2.6-6c-1.6-1.4-3.6-2.1-5.9-2.1c-2.3,0-4.3,0.7-6,2c-1.9,1.5-3.1,3.6-3.4,6.2c-5.1,52.6-7.7,93.4-7.7,121.3v4
			c0.1,4.5,2.6,7.6,6.8,8.5c5.3,1.2,12,2,20.1,2.2l4.8,0.1l5,0.2c3.7,0.1,6.9,0.2,9.8,0.5h0.5c3.2,0,5.1-1.4,6-2.5
			c1.5-1.6,2.3-3.7,2.3-6c0-2.2-0.7-4.2-2-6C2015.4,2218,2013.2,2216.8,2010.5,2216.6z"/>
		<path fill="#FFFFFF" d="M2129.8,2117.9c3.2-4.8,6.2-9.1,8.7-12.7c1.1-1.5,1.7-3.2,1.7-4.9c0-0.8-0.1-1.6-0.4-2.3
			c-0.7-2-2.1-3.7-3.9-4.8c-1.5-1-3.2-1.5-4.9-1.5c-0.5,0-1,0.1-1.4,0.1c-2.5,0.3-4.6,1.6-6.1,3.7c-3.5,4.9-8.6,12.5-15,22.6
			c0,0-8.2,12.6-8.6,13.2c-0.5-14-0.9-25.8-1.3-35c-0.1-2.7-1.2-4.9-3.1-6.5c-1.7-1.4-3.7-2.1-5.9-2.1c-2.3,0-4.4,0.7-6,2.2
			c-1.2,1.1-2.7,3.1-2.7,6.3v0.4l1.2,32.4l1.1,32.3c0.9,28,1.6,49.7,2.3,64.6c0.1,2.7,1.2,4.9,3.1,6.5c1.7,1.4,3.7,2.1,6,2.1
			c2.3,0,4.4-0.8,5.9-2.2c1.2-1.1,2.7-3,2.7-6.3l0-0.5c-0.5-10.8-1-24.9-1.6-42.1c7.1,13.1,14.2,28,21.1,44.6c1,2.3,2.7,4.1,4.9,5
			c1.2,0.5,2.4,0.8,3.7,0.8c1,0,2-0.2,2.6-0.4c2.3-0.5,4.1-1.8,5.2-3.6c0.8-1.2,1.2-2.5,1.2-4c0-1.2-0.3-2.4-0.8-3.5
			c-11.2-27.1-22.7-49.9-34.3-67.8c4.3-5.9,9.8-13.9,16.2-23.7L2129.8,2117.9z"/>
		<path fill="#FFFFFF" d="M2222.9,2191.1c-0.4-4.3-0.8-9.8-1.3-16.5l-1.3-16.6c-2-27.6-5.7-49.8-10.8-66.1c-1.3-3.9-4.4-6.2-8.6-6.2
			c0,0,0,0,0,0c-3.9,0.1-7,2.2-8.5,6c-6.4,16-13.5,37.6-21.1,64.2l-4.7,16.2l-4.6,16.2c-3.6,12.3-7,23-9.9,32
			c-0.3,1-0.5,1.9-0.5,2.9c0,1.5,0.4,2.9,1.2,4.2c1.1,1.8,3,3.1,5.1,3.7c1,0.3,1.9,0.5,2.8,0.5c1.4,0,2.6-0.3,3.7-0.8
			c2.2-1.1,3.9-2.9,4.7-5.4c2.6-7.9,5.5-17.2,8.7-27.9c8.8-0.5,18.1-0.7,27.6-0.7c1.1,11.8,2.5,22.1,4.1,30.7c0.6,3.4,2.6,5.1,4.2,6
			c1.2,0.6,2.5,0.9,3.9,0.9c0.8,0,1.6-0.1,2.5-0.3c2.2-0.6,3.9-1.9,5.2-3.6c1.1-1.5,1.7-3.2,1.7-5.1c0-0.6-0.1-1.2-0.2-1.8
			C2225.4,2214.5,2224,2203.6,2222.9,2191.1z M2186.9,2166.4l5.3-18c2.4-8,4.7-15.4,6.9-22.2c1,6.5,1.9,13.5,2.6,21.1
			c0.5,4.9,1,10.9,1.6,17.7l1,13.9c-7.1,0-14.2,0.2-21.1,0.5L2186.9,2166.4z"/>
		<path fill="#FFFFFF" d="M2287.2,2091.8l-9.6-0.9l-9.8-1.1c-8.2-0.8-14.8-1.4-19.5-1.7l-0.5,0c-2.3,0-4.4,0.9-6.1,2.6
			c-1.7,1.8-2.6,3.9-2.6,6.1c-0.1,4.8-0.2,10.2-0.2,16c0,13.5,0.3,29.8,1,48.6l0.6,16.1l0.5,16.1c0.4,12.2,0.6,23,0.7,32
			c0,2.7,1,5,2.9,6.6c1.6,1.4,3.7,2.2,6,2.2c2.2,0,4.3-0.8,5.8-2.1c2-1.6,3-3.9,3-6.7c-0.1-11.1-0.4-26.1-1-44.5l22.4,0.9l0.4,0
			c3.2,0,5.2-1.5,6.3-2.7c1.4-1.6,2.2-3.7,2.2-6c0-2.3-0.7-4.4-2-5.9c-1.6-2-3.9-3.2-6.6-3.3l-23.3-0.9c-0.6-19.4-1-36-1-49.3
			c0-2.5,0-5,0-7.3l4.4,0.4l8.4,0.9c7.6,0.8,13.1,1.3,17.2,1.6h0.5c3.2,0,5.1-1.4,6-2.5c1.5-1.6,2.3-3.7,2.3-6c0-2.3-0.7-4.3-2.1-6
			C2292,2093.1,2289.8,2092,2287.2,2091.8z"/>
		<path fill="#FFFFFF" d="M2335.1,2106.7l7.3,0.6c6,0.5,11,0.7,15.1,0.8c2.5,0,4.7-1,6.1-2.7c1.5-1.6,2.3-3.7,2.3-6
			c0-2.3-0.8-4.4-2.1-6c-1.6-1.9-3.8-3-6.5-3.1c-2.5-0.1-5.3-0.2-8.3-0.4l-8.5-0.7c-7.6-0.6-13.4-0.9-17.5-1c-2.4,0-4.6,1-6.1,2.7
			c-1.5,1.6-2.3,3.5-2.5,5.8c-1.4,16-2.7,37.6-3.8,64.4l-1.3,32.1c-0.6,11.9-1.2,22.7-1.8,32l0,0.4c0,2.4,0.9,4.5,2.7,6.2
			c1.8,1.7,3.9,2.6,6.2,2.6h0h0c12.5-0.3,24.9-2.2,37-5.6c2.6-0.8,4.5-2.4,5.5-4.7c0.5-1.2,0.8-2.5,0.8-3.8c0-0.8-0.1-1.7-0.3-2.6
			c-0.6-2.2-1.8-3.9-3.6-5.2c-1.4-0.9-2.9-1.4-4.6-1.4c-1,0-1.9,0.2-2.6,0.4c-7.4,2.1-15.1,3.6-22.8,4.4c0.5-9.8,1.1-21.8,1.7-35.7
			h23.1c2.6,0,4.9-1,6.6-2.9c1.4-1.6,2.2-3.7,2.2-6c0-2.3-0.8-4.4-2.2-6c-1.7-1.9-3.9-2.9-6.6-2.9h-22.4c0.9-22.8,1.9-41.6,3.1-56
			L2335.1,2106.7z"/>
	</g>
	<path fill="#FFFFFF" d="M3360.1,1297.9H499.3v-286.8h2860.8V1297.9z M522.1,1275.1h2815.2v-241.3H522.1V1275.1z"/>
	<rect x="510.7" y="1129.8" fill="#FFFFFF" width="2838" height="22.8"/>
	<polygon fill="#FFFFFF" points="2699.1,2988.9 1299.7,2988.9 1299.7,1288.5 1322.5,1288.5 1322.5,2966.2 2676.4,2966.2 
		2676.4,1287 2699.1,1287 	"/>
	<path fill="#FFFFFF" d="M2613,2829.3H1387.8V2711H2613V2829.3z M1410.6,2806.6h1179.7v-72.8H1410.6V2806.6z"/>
	<path fill="#FFFFFF" d="M2452.4,1535.4c-0.9-0.4-1.8-0.8-2.7-1.3c-0.7-0.3-1.5-0.7-2.3-1.1c-0.5-0.3-1.1-0.5-1.6-0.8
		c-2.2-1.1-4.4-2.2-6.5-3.4h-100c-0.6,2-1.2,4-1.8,6c-0.3,0.9-0.5,1.7-0.8,2.6c-1.2,3.7-2.4,7.4-3.8,10.8c-0.4,1.2-0.9,2.3-1.3,3.4
		h156.7L2452.4,1535.4z M2237.3,1548.8c-0.8-0.9-1.6-1.8-2.4-2.7c-5-5.6-9.9-11.4-14.8-17.3h-76.2c-2.1,4.8-4.2,9.5-6.4,14.3
		c-1.1,2.3-2.1,4.5-3.1,6.7c-0.3,0.6-0.5,1.2-0.8,1.8h106.3C2239,1550.6,2238.2,1549.7,2237.3,1548.8z M2452.4,1535.4
		c-0.9-0.4-1.8-0.8-2.7-1.3c-0.7-0.3-1.5-0.7-2.3-1.1c-0.5-0.3-1.1-0.5-1.6-0.8c-2.2-1.1-4.4-2.2-6.5-3.4h-100c-0.6,2-1.2,4-1.8,6
		c-0.3,0.9-0.5,1.7-0.8,2.6c-1.2,3.7-2.4,7.4-3.8,10.8c-0.4,1.2-0.9,2.3-1.3,3.4h156.7L2452.4,1535.4z M2237.3,1548.8
		c-0.8-0.9-1.6-1.8-2.4-2.7c-5-5.6-9.9-11.4-14.8-17.3h-76.2c-2.1,4.8-4.2,9.5-6.4,14.3c-1.1,2.3-2.1,4.5-3.1,6.7
		c-0.3,0.6-0.5,1.2-0.8,1.8h106.3C2239,1550.6,2238.2,1549.7,2237.3,1548.8z M1765.1,1528.8h-103.6c-9.6,8.5-19.3,16.3-28.7,22.8
		h142.1C1771.8,1544.4,1768.5,1536.6,1765.1,1528.8z M2237.3,1548.8c-0.8-0.9-1.6-1.8-2.4-2.7c-5-5.6-9.9-11.4-14.8-17.3h-76.2
		c-2.1,4.8-4.2,9.5-6.4,14.3c-1.1,2.3-2.1,4.5-3.1,6.7c-0.3,0.6-0.5,1.2-0.8,1.8h106.3C2239,1550.6,2238.2,1549.7,2237.3,1548.8z
		 M2499.8,1528.8l-9.1,22.8h98.5v1086.8H1410.6V1551.5h150.2l-3.6-14.2c-0.7-2.8-1.4-5.7-2.1-8.6h-167.3v1132.4h1224.1V1528.8
		H2499.8z M2452.4,1535.4c-0.9-0.4-1.8-0.8-2.7-1.3c-0.7-0.3-1.5-0.7-2.3-1.1c-0.5-0.3-1.1-0.5-1.6-0.8c-2.2-1.1-4.4-2.2-6.5-3.4
		h-100c-0.6,2-1.2,4-1.8,6c-0.3,0.9-0.5,1.7-0.8,2.6c-1.2,3.7-2.4,7.4-3.8,10.8c-0.4,1.2-0.9,2.3-1.3,3.4h156.7L2452.4,1535.4z
		 M2003.2,1528.8h-100.3c-6.1,7.4-12.5,15.2-18.9,22.8h134.8C2013.5,1543.9,2008.2,1536.2,2003.2,1528.8z M2237.3,1548.8
		c-0.8-0.9-1.6-1.8-2.4-2.7c-5-5.6-9.9-11.4-14.8-17.3h-76.2c-2.1,4.8-4.2,9.5-6.4,14.3c-1.1,2.3-2.1,4.5-3.1,6.7
		c-0.3,0.6-0.5,1.2-0.8,1.8h106.3C2239,1550.6,2238.2,1549.7,2237.3,1548.8z M2452.4,1535.4c-0.9-0.4-1.8-0.8-2.7-1.3
		c-0.7-0.3-1.5-0.7-2.3-1.1c-0.5-0.3-1.1-0.5-1.6-0.8c-2.2-1.1-4.4-2.2-6.5-3.4h-100c-0.6,2-1.2,4-1.8,6c-0.3,0.9-0.5,1.7-0.8,2.6
		c-1.2,3.7-2.4,7.4-3.8,10.8c-0.4,1.2-0.9,2.3-1.3,3.4h156.7L2452.4,1535.4z M2237.3,1548.8c-0.8-0.9-1.6-1.8-2.4-2.7
		c-5-5.6-9.9-11.4-14.8-17.3h-76.2c-2.1,4.8-4.2,9.5-6.4,14.3c-1.1,2.3-2.1,4.5-3.1,6.7c-0.3,0.6-0.5,1.2-0.8,1.8h106.3
		C2239,1550.6,2238.2,1549.7,2237.3,1548.8z M2452.4,1535.4c-0.9-0.4-1.8-0.8-2.7-1.3c-0.7-0.3-1.5-0.7-2.3-1.1
		c-0.5-0.3-1.1-0.5-1.6-0.8c-2.2-1.1-4.4-2.2-6.5-3.4h-100c-0.6,2-1.2,4-1.8,6c-0.3,0.9-0.5,1.7-0.8,2.6c-1.2,3.7-2.4,7.4-3.8,10.8
		c-0.4,1.2-0.9,2.3-1.3,3.4h156.7L2452.4,1535.4z"/>
	<path fill="#FFFFFF" d="M2727.1,1526.1v1143.6l280.3-70.8v-672.1c-7.6,2.7-15.2,5.6-22.8,8.8v645.5l-234.7,59.3V1547.6l234.7-13.6
		v350.9c6.4-9.9,14.1-19.3,22.8-27.7v-174.6c-5.7-0.5-11.6-0.7-17.8-0.7h-0.1c5.4-5.5,11.5-10.7,17.9-15.4v-156.7L2727.1,1526.1z"/>
	<path fill="#FFFFFF" d="M2727.1,1494.2v-157.4h280.3v140.1L2727.1,1494.2z M2749.9,1359.6V1470l234.7-14.5v-95.9H2749.9z"/>
	<path fill="#FFFFFF" d="M2727.1,2839.3V2719l280.3-88.1v104.4L2727.1,2839.3z M2749.9,2735.7v70.8l234.7-87.1v-57.5L2749.9,2735.7z
		"/>
	<path fill="#FFFFFF" d="M3072.4,1286.5v353.6c-7.5,0.8-15.2,2.5-22.8,5v-358.6H3072.4z"/>
	<path fill="#FFFFFF" d="M3049.6,1690.7c7.9,2.6,15.4,5.6,22.8,9.2v120.7c-8,2.1-15.6,4.7-22.8,7.9V1690.7z"/>
	<path fill="#FFFFFF" d="M3072.4,1909.1v113.9c-13.6,36.7-9.3,73.8,0,102.2v657.6l-381,128l-7.3-21.6l365.5-122.8v-852.1
		C3057.4,1912.2,3065,1910.5,3072.4,1909.1z"/>
	<polygon fill="#FFFFFF" points="2691.7,2988.2 2683.8,2966.9 3049.6,2832.3 3049.6,2774.5 3072.4,2774.5 3072.4,2848.2 	"/>
	<polygon fill="#FFFFFF" points="1301.1,2983.1 1260.3,2910.3 841.1,2910.3 841.1,1835 1262.7,1835 1262.7,2775.7 1318,2881.2 
		2687.7,2881.2 2687.7,2904 1304.2,2904 1239.9,2781.3 1239.9,1857.8 863.9,1857.8 863.9,2887.5 1273.6,2887.5 1321,2972 	"/>
	<path fill="#FFFFFF" d="M1256.2,2902.8c-22.9-62.5-16.5-123.1-16.2-125.6l22.6,2.5l-11.3-1.3l11.3,1.2c-0.1,0.6-6,58,15,115.3
		L1256.2,2902.8z"/>
	<rect x="852.5" y="2772.4" fill="#FFFFFF" width="398.4" height="22.8"/>
	<path fill="#FFFFFF" d="M1197.5,2665.8H908v-774.5h289.6V2665.8z M930.8,2643h244V1914h-244V2643z"/>
	<polygon fill="#FFFFFF" points="1267.7,1782.5 1015.1,1782.5 1005.8,1759.7 1244.9,1759.7 1244.9,1562.7 997,1562.7 973.6,1539.9 
		1267.7,1539.9 	"/>
	<path fill="#FFFFFF" d="M1267.7,1490H923.4v-166.1h344.3V1490z M946.2,1467.2h298.7v-120.6H946.2V1467.2z"/>
	<path fill="#FFFFFF" d="M571.2,1286.5v207.9c-7.3-1.3-14.9-2.1-22.8-2.2v-205.7H571.2z"/>
	<path fill="#FFFFFF" d="M571.2,1561.5v34.4c-8-9.7-15.6-18-22.8-25.2v-31.3C555.6,1545.7,563.2,1553,571.2,1561.5z"/>
	<path fill="#FFFFFF" d="M548.5,1622.5c7.7,1,15.4,2.4,22.8,4.3v23.5c-7.3-2.1-15-3.7-22.8-4.8V1622.5z"/>
	<path fill="#FFFFFF" d="M571.2,1719.1v24.6c-6.8-2.5-14.4-5-22.8-7.3v-24C556.6,1714.4,564.2,1716.7,571.2,1719.1z"/>
	<path fill="#FFFFFF" d="M548.5,1764.1c7.2-3.7,14.9-7.2,22.8-10.3v24.5c-8,3.6-15.7,7.5-22.8,11.6V1764.1z"/>
	<path fill="#FFFFFF" d="M548.5,1869.9c7.8-4.9,15.4-9.3,22.8-13.4v832.4h-22.8V1869.9z"/>
	<path fill="#FFFFFF" d="M1012.1,1630.2l33.5,11.8l-20.4-29.1C951,1506.8,862.5,1522.4,828,1534c-38.5,13-92.2,48.5-117.7,106.1
		c-4.9-29.4-14-64.8-30.5-91.8c-27.2-44.4-63.6-70.1-108.5-77c-7.4-1.1-15-1.7-22.8-1.9c-4.6-0.1-9.3,0-14,0.3
		c-63.4,3.9-80.2,40-80.9,41.6l-13.7,29.4l28.3-14.2c2.6-0.7,30.6-6,80.3,44.1c7.1,7.2,14.8,15.6,22.8,25.2
		c9.7,11.6,19.9,25.1,30.8,40.9c-9.7-4-20.1-7.4-30.8-10.1c-7.4-1.8-15-3.2-22.8-4.3c-22.2-2.9-45.5-2.2-68.2,3.1
		c-83.2,19.5-111.6,101.5-112.7,105l-7.7,22.9l22.6-8.7c65.9-25.3,124.7-19.8,166-8.5c8.3,2.3,16,4.8,22.8,7.3
		c4.8,1.8,9.3,3.6,13.3,5.3c-4.5,1.5-8.9,3.1-13.3,4.9c-7.9,3.1-15.6,6.6-22.8,10.3c-14.8,7.5-27.9,15.8-38.3,23.6l-0.3,0.3
		c-54.1,43.7-79.1,109.7-68.6,181l3.8,25.6l16.3-20.1c25.9-31.8,57.3-57.4,87.1-77.2c7.7-5.2,15.4-9.9,22.8-14.3
		c31.7-18.7,59.1-30.4,72.4-35.6c1.4,1.9,2.8,3.8,4.4,5.5c-3.7,32.2-22.5,200.6-27.1,280.6c-4.4,75.5-11,189.5-7.5,302.3
		c3.3,107.1,24.2,232.1,24.4,233.3l22.4-3.8c-0.2-1.3-20.8-124.8-24.1-230.2c-3.2-103.2,1.7-201,7.5-300.3
		c4.2-72.1,20-216.9,25.6-267.1c6.6,2.6,13.7,4.1,21.2,4.1c1.5,0,3-0.1,4.5-0.2c-17,146.4-10.7,380.6-8.1,432.9
		c2.7,55.1,12.4,144.3,42.7,256.7c25.9,96.1,63,169.3,64.6,172.4l20.3-10.3c-0.4-0.7-37.6-74.2-62.9-168
		c-23.2-86.2-38.1-175.7-41.9-251.9c-2.6-52.8-9.1-292.1,8.8-436.2c4.9,1.4,11.6,2.7,19.5,2.7c6.7,0,14.2-0.9,22.4-3.5
		c13.4-3.8,23.2-11.9,29.2-24.1c3.1,0.4,6.7,0.7,10.8,0.7c8.3,0,18.3-1.3,28.9-5.5c11.3-4.5,19.4-13.5,22.7-25.3
		c2.2-7.8,2.2-16.6,0.3-25.2c44.1,10.6,100.5,30.5,126.4,66.2l14.3,19.7l5.9-23.7c0.3-1.3,8.1-33.8-11.2-90.1l-0.2-0.6
		c-19.5-48.1-60.6-80.2-118.7-92.8c-23.7-5.1-47.5-4.7-70,0.5c21.5-15.8,45-29.9,66.5-39.2
		C930.9,1602.2,1011.3,1629.9,1012.1,1630.2z M571.2,1561.5c-8-8.5-15.6-15.8-22.8-22.1c-24.2-21-43.8-30.4-58.5-34.1
		c9.4-5.9,24-11.5,45.8-12.9c4.3-0.3,8.5-0.4,12.6-0.3c7.9,0.1,15.5,0.8,22.8,2.2c36.7,6.6,66,28.4,89.1,65.9
		c28.3,46.1,32.5,124.3,33,135.4c-1.8,9-3.2,17.6-4.3,25.7c-6.8-13.4-15.3-28-25.5-41.2c-4.7-6-10.5-11.9-17.3-17.5
		C618.3,1617.6,593.3,1585,571.2,1561.5z M571.2,1719.1c-7-2.4-14.6-4.6-22.8-6.7c-38.7-9.7-90-14.1-148.2,2.6
		c13.5-23,40.2-56.6,85.3-67.2c21.4-5.1,42.9-5.3,63-2.3c7.8,1.1,15.5,2.8,22.8,4.8c33.7,9.4,61.1,27.1,74.2,43.9
		c12.3,15.8,22.1,34.5,29,49.5c-17.9-5.2-36.9-5.7-55.6-3C611.7,1736.4,595.1,1727.2,571.2,1719.1z M633.1,1814.2
		c0,4.2,0.5,8.3,1.3,12.3c-12.8,5-35.9,14.8-63.2,30c-7.3,4.1-15,8.5-22.8,13.4c-28.4,17.8-59.2,40.8-86.8,69.8
		c-0.6-52.9,21.3-100.6,62.3-133.8c7-5.2,15.3-10.7,24.5-15.9c7.1-4.1,14.8-8,22.8-11.6c28.6-12.8,61.8-21.1,91.4-14.3
		C645,1773.9,633.1,1792.7,633.1,1814.2z M703.7,1782.1c12.6,5.2,21.6,17.6,21.6,32.1c0,19.2-15.6,34.7-34.7,34.7
		c-19.1,0-34.7-15.6-34.7-34.7c0-18.4,14.4-33.4,32.5-34.6 M754.3,1844.4l-0.4,0.1c-6,1.9-11.4,2.5-16.1,2.5
		c1.8-2.6,3.4-5.3,4.7-8.2c4.2,0.9,9.2,1.6,14.6,1.6c1.9,0,3.9-0.1,5.9-0.3C760.5,1842,757.6,1843.4,754.3,1844.4z M769.2,1815
		c-6.2,3.4-14.6,2.9-21.2,1.7c0.1-0.8,0.1-1.6,0.1-2.5c0-17.7-8.1-33.6-20.7-44.1c4.6-3.7,11.5-7.7,21-9.9c11.6-2.7,19.4,0.3,24,3.2
		c5.2,3.4,8.8,8.5,9.8,14.1C785.6,1795.4,784.5,1806.6,769.2,1815z M830.2,1806c-1.4,5-4.4,8.3-9.1,10.2c-8.8,3.5-17.1,4.1-23.3,3.8
		c10.8-14.6,9.4-31.5,7.6-42.2c5.6,0.8,12.6,1.9,20.7,3.4C830.5,1789,832.3,1798.8,830.2,1806z M864.1,1688
		c51,11.1,85.4,37.6,102.3,78.8c7.4,21.7,10.3,39.2,11.3,52c-59-50.8-168.3-63.7-182.5-65.2c-2.9-3.5-6.4-6.6-10.3-9.2
		c-11.7-7.6-26.4-9.9-41.6-6.4c-9.8,2.3-17.7,6-23.9,9.9C749.7,1700.6,807.5,1675.7,864.1,1688z M856.6,1606
		c-50.2,21.8-108.9,66.3-136.5,103.5l0.6,0.4c-2.9,3-5.7,6-8.3,9.2c3.2-21.2,8.6-46.2,17.9-68c20.8-48.6,67.7-83,105-95.6
		c26.6-8.9,90.3-20.4,150.3,44.1c-32.4-6.5-82.8-11.3-128.4,6.1L856.6,1606z"/>
	<g>
		<path fill="#FFFFFF" d="M1997.9,1472.9c-250.7,0-491-60.8-694.9-176l11.2-19.8c200.5,113.2,436.9,173,683.7,173
			c247.3,0,484-60,684.7-173.6l11.2,19.8C2489.8,1411.8,2249.1,1472.9,1997.9,1472.9z"/>
		<path fill="#FFFFFF" d="M1383.7,1476.3l2-144.1l22.8,0.3l-1.5,109.2c23.9-11.5,68.8-36.5,91.3-70.3l18.9,12.6
			c-35.5,53.1-114.4,84.6-117.7,85.9L1383.7,1476.3z"/>
		<path fill="#FFFFFF" d="M1588.3,1544.3l-3.6-14c-12.8-50.2-13.8-124.8-13.8-128l22.8-0.3c0,0.7,0.8,60.8,9.8,107.4
			c28.4-19.4,61.9-54.6,79.9-85.1l19.6,11.6c-23,39-67.7,83.7-101.9,101.6L1588.3,1544.3z"/>
		<path fill="#FFFFFF" d="M1820.3,1581l-7.4-14.8c-12-24-48.5-113.4-50-117.1l21.1-8.6c0.3,0.8,26.9,65.8,42.2,100.1
			c29.8-34.2,72.5-88.1,73-88.7l17.9,14.1c-2.3,2.9-56.3,71-85.5,102.8L1820.3,1581z"/>
		<path fill="#FFFFFF" d="M2082,1586.9l-10.1-11.8c-24.1-28.2-72.6-104.3-74.6-107.5l19.2-12.2c0.4,0.7,37.4,58.8,62.3,91.8
			c17-33.7,41.5-95.1,41.8-95.8l21.2,8.4c-1.4,3.5-34.7,86.8-51.6,113.9L2082,1586.9z"/>
		<path fill="#FFFFFF" d="M2296,1561.3l-10.8-6.9c-27.4-17.3-80.2-92.6-86.2-101.1l18.7-13c13,18.7,46.7,64.5,68.8,85.9
			c13.1-37.9,22.5-100.7,22.6-101.4l22.5,3.3c-0.5,3.5-12.6,85-30.1,121.6L2296,1561.3z"/>
		<polygon fill="#FFFFFF" points="2490.6,1551.5 2490.3,1552.4 2488.4,1551.5 		"/>
		<path fill="#FFFFFF" d="M2474.9,1514.3l-10.8-4.9c-51.7-23.2-97-86.9-98.9-89.6l18.6-13.1c0.4,0.6,36.8,51.8,78.4,76.1
			c9.4-33.3,11.5-83.2,6.9-98.7l21.8-6.6c7.1,23.7,2.7,90.2-11.6,125.7L2474.9,1514.3z"/>
		<path fill="#FFFFFF" d="M2611.1,1468.1l-13.2-3.2c-56.6-13.6-115.8-73.7-118.3-76.2l16.3-15.9c0.5,0.5,47.5,48.2,93.8,65.8
			c0.6-38-3.5-85.8-8-99.8l21.7-7c6.4,19.9,10.8,83,8.5,122.7L2611.1,1468.1z"/>
	</g>
	<rect x="1409.6" y="1327.2" fill="#FFFFFF" width="1175.7" height="22.8"/>
	<path fill="#FFFFFF" d="M1015.6,2218L1015.6,2218c-4.3-4.5-4.2-11.6,0.2-15.9l64.4-63.8c4.5-4.5,11.9-4.4,16.3,0.2l0,0
		c4.3,4.5,4.2,11.6-0.2,15.9l-64.4,63.8C1027.4,2222.7,1020,2222.6,1015.6,2218z"/>
	<path fill="#FFFFFF" d="M1469.9,1713.9L1469.9,1713.9c-4.3-4.5-4.2-11.6,0.2-15.9l64.4-63.8c4.5-4.5,11.9-4.4,16.3,0.2l0,0
		c4.3,4.5,4.2,11.6-0.2,15.9l-64.4,63.8C1481.7,1718.6,1474.3,1718.5,1469.9,1713.9z"/>
	<path fill="#FFFFFF" d="M3007.4,1827.3c-8.3,6.3-15.9,13.2-22.8,20.7c-31.3,33.9-48.2,78.4-49.4,119l-0.7,20.7l17.9-10.6
		c10.5-6.2,21.3-11.7,32.2-16.6v-24.9c-8.2,3.5-16.4,7.2-24.5,11.4c3.7-21.2,11.9-42.8,24.5-62.1c6.4-9.9,14.1-19.3,22.8-27.7
		c12-11.6,26.1-21.4,42.2-28.6v-24.6C3034,1809.8,3019.9,1817.8,3007.4,1827.3z M3007.4,1827.3c-8.3,6.3-15.9,13.2-22.8,20.7
		c-31.3,33.9-48.2,78.4-49.4,119l-0.7,20.7l17.9-10.6c10.5-6.2,21.3-11.7,32.2-16.6v-24.9c-8.2,3.5-16.4,7.2-24.5,11.4
		c3.7-21.2,11.9-42.8,24.5-62.1c6.4-9.9,14.1-19.3,22.8-27.7c12-11.6,26.1-21.4,42.2-28.6v-24.6
		C3034,1809.8,3019.9,1817.8,3007.4,1827.3z M3640.1,1988l-0.3-20.8c-0.6-36.2-8.6-87.5-43.7-126.9l-0.5-0.5
		c-44.5-44-91.8-71.5-178-62.5c76.8-52.1,145.7-46.5,146.5-46.5l19.5,1.9l-7.9-17.9c-0.9-1.9-21.9-47.2-99.5-57.4
		c-77.1-10.1-141.9,36.1-176.8,82.6c-11.2,14.9-18.2,33.7-22.5,52.6c-10.9-32.2-27.6-71.8-50.1-100.1c-39.4-49.6-94.5-78-147.6-75.8
		c-2.2,0.1-4.5,0.2-6.8,0.5c-7.6,0.7-15.2,2.1-22.8,4.1c-14.6,3.8-28.9,10-42.2,17.9c-8,4.8-15.7,10.2-22.8,16.1
		c-11.5,9.7-21.6,20.8-29.4,32.9l-12.6,19.6l23.2-2.1c6.5-0.6,12.8-0.9,18.8-1.1c8-0.2,15.6,0.1,22.8,0.7
		c15.6,1.3,29.3,4.6,42.2,9.4c7.9,3,15.4,6.6,22.8,10.8c14.6,8.3,28.5,18.9,43.3,31.5c16.9,14.5,31.6,28.5,43.2,40.2
		c-28-6.1-57.2-6.4-86.5-0.2c-0.5,0.1-1,0.2-1.5,0.3c-7.4,1.7-14.5,3.9-21.3,6.4c-15.6,5.9-29.7,13.8-42.2,23.3
		c-8.3,6.3-15.9,13.2-22.8,20.7c-31.3,33.9-48.2,78.4-49.4,119l-0.7,20.7l17.9-10.6c10.5-6.2,21.3-11.7,32.2-16.6
		c7.5-3.4,15.2-6.5,22.8-9.3c14.2-5.3,28.4-9.7,42.2-13.3c7.7-2,15.4-3.8,22.8-5.4c22.7-4.8,43.9-7.6,61.6-9.3
		c-25.9,16-47.8,36-61.6,53.4c-2.9,3.6-5.4,7.1-7.5,10.5c-6.6,10.9-11.6,22-15.3,33c-12.8,38.4-9.1,76.8,0,107.1
		c5.2,17.5,12.1,32.3,18.8,43l4,6.5l7.6,12.3l8.3-20.5c0.2-0.4,17-41.2,43.5-74.4c22.2-27.7,72.3-70,89.7-84.4
		c5.6,2.9,11.7,5.1,18.1,6.4c4.4,0.9,8.7,1.3,12.9,1.3c11.9,0,22.7-3.6,30.9-10.3c0,0,0,0,0,0c3.3,26,9,75.8,12,128.1
		c6.5,110.2,2.6,178.6-2.4,265.2l-1.1,19.7c-4.4,78.3-20.6,154.3-26.3,179.4h-160v135.3h73.1c6.3,0,11.4-5.1,11.4-11.4l0,0
		c0-6.3-5.1-11.4-11.4-11.4h-50.3v-89.7h143.3c38.2,20.6,99.1,24.1,101.7,24.2l10.7,0.6l1.2-10.7c0.1-0.4,5.1-45,10-103.9
		c5-76.7,2-193.3-8.5-319.7c-8.3-100.1-18.2-167.6-23-197.4c7,6.4,14.5,12.7,22.3,19.3c7,5.9,14.3,12,21.6,18.6
		c43.8,39.1,80.6,84.2,101,123.8l10.7,20.7l9.8-21.1c49.2-105.7-2.8-203.2-41.4-244l-0.4-0.4c-4.8-4.6-9.6-8.7-14.4-12.4
		c67.9,9.8,108.5,31.8,149.4,57.2L3640.1,1988z M3317.5,1753.7c31-41.4,88.3-82.5,155.6-73.7c36,4.7,57.2,17.7,68.9,28.3
		c-36.1,2.6-109.3,20.7-179.6,85.8l3.6-2.6c-38.3,17.7-62.6,46.5-73.1,60.8C3293.4,1825.7,3297.3,1780.6,3317.5,1753.7z
		 M3130.6,1739.9c-19.4-16.6-38-30.2-58.2-40c-7.3-3.6-14.9-6.6-22.8-9.2c-13-4.2-26.9-6.9-42.2-8.1c-5.7-0.5-11.6-0.7-17.8-0.7
		h-0.1c5.4-5.5,11.5-10.7,17.9-15.4c12.9-9.3,27.4-16.8,42.2-21.5c7.6-2.4,15.2-4.1,22.8-5c2.6-0.3,5.1-0.5,7.7-0.6
		c45.7-1.8,93.9,23.3,128.8,67.2c37.9,47.7,58.8,134.6,61.2,145.1c-0.1,3.2-0.1,6.2,0,8.9c-19.9-20.2-42-36.1-65.4-47.4
		C3198.5,1806,3171.3,1774.7,3130.6,1739.9z M3072.4,1909.1c-7.4,1.5-15,3.2-22.8,5.2c-13.8,3.4-28,7.6-42.2,12.6
		c-7.6,2.7-15.2,5.6-22.8,8.8c-8.2,3.5-16.4,7.2-24.5,11.4c3.7-21.2,11.9-42.8,24.5-62.1c6.4-9.9,14.1-19.3,22.8-27.7
		c12-11.6,26.1-21.4,42.2-28.6c7.2-3.2,14.8-5.9,22.8-7.9c1.2-0.3,2.3-0.6,3.5-0.9c68-14.7,132.9,7.6,183.6,62.8
		c-2.2,3.7-4,7.6-5.4,11.7c-2.7,0.1-5.3,0.3-7.8,0.6c-19.6-3.4-39.8-1.3-59.4,4.3l0-1.1C3183.6,1898,3134.5,1896.5,3072.4,1909.1z
		 M3114.4,2080.1c-16.2,20.3-28.9,42.7-36.9,58.6c-1.8-4.2-3.5-8.8-5.1-13.6c-9.3-28.3-13.6-65.4,0-102.2c3-8.1,6.8-16.1,11.6-24
		c17.3-27.3,66.5-69.2,117.6-80.4c-1.8,2.1-3.2,4.2-4.4,6.1c-11.1,17.7-12.4,40.5-3.4,57.9c2.5,4.8,5.7,9.2,9.4,13.2
		C3182.6,2012.9,3136.5,2052.4,3114.4,2080.1z M3269.1,1989.9c-5.8,4.8-14.9,6.3-24.9,4.2c-13.1-2.7-24.7-11.1-30.4-22
		c-5.4-10.4-4.4-24.7,2.4-35.7c7.1-11.4,19.5-18.2,35.4-19.5c1.9,20.8,15,38.4,33.2,46.6C3283.5,1969.9,3279.7,1981.2,3269.1,1989.9
		z M3274.2,1911.8c0-18.8,15.2-34.1,33.9-34.1c18.7,0,33.9,15.3,33.9,34.1c0,18.8-15.2,34.1-33.9,34.1
		C3289.4,1945.9,3274.2,1930.6,3274.2,1911.8z M3364.2,2214.7c10.3,125.4,13.4,240.7,8.5,316.2c-3.4,41.2-6.9,75.4-8.7,92
		c-17.2-1.7-51.5-6.5-76.1-18c5.9-25.6,22.4-103.2,26.9-183.4l1.1-19.7c5-87.3,8.9-156.4,2.4-267.8c-3.9-66.6-13.4-134.7-15.9-152
		c-0.5,1.2-1.1,2.4-1.7,3.6l1.1-7.7c0,0.1,0.2,1.5,0.6,4.2c2.2-5,3.6-9.7,4.4-13.4c0.5,0,0.9,0.1,1.3,0.1c5.8,0,11.3-0.9,16.5-2.5
		c2.5,5.2,5.3,10.1,8.4,14.8l5.5,21.4C3338.7,2003.1,3353,2078.2,3364.2,2214.7z M3517.1,2145.6c-31.2-50.4-75-92.2-94.1-109.3
		c-7.6-6.7-15-13-22.1-19c-24.9-21-45-38-56.3-62.1c12.3-10.4,20.2-26,20.2-43.4c0-2-0.1-4-0.3-5.9c22.1-0.3,67,4.4,107.1,42.6
		C3501.3,1980.2,3545.3,2059.1,3517.1,2145.6z M3423.2,1892.4v0.3c-28.1-9.7-52.8-10.1-66.1-9.3c-8-13.9-21.7-24.1-37.9-27.3
		c16.9-19.8,50.9-50.8,100.4-56c77.6-8.2,118.7,15.2,159.8,55.7c24.1,27.1,33.4,61.5,36.4,90.7
		C3569.6,1919.4,3516.3,1896.6,3423.2,1892.4z M3007.4,1827.3c-8.3,6.3-15.9,13.2-22.8,20.7c-31.3,33.9-48.2,78.4-49.4,119
		l-0.7,20.7l17.9-10.6c10.5-6.2,21.3-11.7,32.2-16.6v-24.9c-8.2,3.5-16.4,7.2-24.5,11.4c3.7-21.2,11.9-42.8,24.5-62.1
		c6.4-9.9,14.1-19.3,22.8-27.7c12-11.6,26.1-21.4,42.2-28.6v-24.6C3034,1809.8,3019.9,1817.8,3007.4,1827.3z M3007.4,1827.3
		c-8.3,6.3-15.9,13.2-22.8,20.7v36.8c6.4-9.9,14.1-19.3,22.8-27.7c12-11.6,26.1-21.4,42.2-28.6v-24.6
		C3034,1809.8,3019.9,1817.8,3007.4,1827.3z"/>
	<g>
		<path fill="#FFFFFF" d="M761.6,2890.6c0,0,5.5-10,5.5-15.7c0-5.7-7.7-15.9-7.7-15.9s18.4-9.7,48.8,2.5c10.5-7.2,10.7-29.1-8-50.3
			c-18.7-21.2-29.9-25.1-51.3-25.6c0,0,3.2-23.1-9.7-38.8c39.1-2,74.9-9.1,77.6-13.2l-2.3-10.3c0,0-15.1-7.3-19.9-3
			c-4.7,4.2-28.9,8-52.5,7.5c-23.6-0.5-49-3.5-49-3.5s8.3-26,0-40.8c-8.3-14.8-31.9-26.3-66.9-14.6c-21.4,7.7-28.1,28.5-28.1,28.5
			s-21.6-14.8-49.6-8.4c-12.1,7.9-32.5,29.7-31.7,43.2c0.7,13.5,2.5,27.4,16.4,32.4c-19.9,13.7-34.3,26.6-37.1,44.8
			c-2.7,18.2,9.2,44.8,28.9,50c19.7,5.2,37.1,0,52.5-5.7c0.7,30.4,22.9,52.5,49.3,56.5c24.4,2.7,47.5-10.9,50.3-17.2
			c6.7,3.7,16.4,11.7,55.5,14.4c39.1,2.7,108.6,3,108.6,3v-19.7H761.6z M641.9,2684.1c22.6-4.4,34.3,3.5,36.7,15.9
			c2.4,12.4-6,24.9-17.8,34.8c-11.8,10-20.5,38.1-22.1,38c-4.4-8.6,3.2-29.7,4-39.2c0.7-9.5-10.7-8-10.8-1.2
			c-0.1,6.8-3.5,22.4-3.5,22.4s-10.1-19.4-12.7-35C613,2704.2,619.2,2688.4,641.9,2684.1z M549.9,2713.3
			c15.7-13.1,33.8-6.2,41.2,6.2c7.3,12.4,28.4,64.2,28.4,64.2s-19.7-11.9-31.6-18.6c-11.9-6.7-36.5-5.2-46.2-15.8
			C532,2738.8,534.3,2726.4,549.9,2713.3z M565.5,2836.4c-11.8,7.5-40.5,9.8-48.3-9.6c-5.3-15.8,9-39.5,27-44.8
			c18.1-5.3,59.1,9,56.9,13.6c-22.7-3.8-31.4,1.2-30.4,5.5c1,4.3,14.3,3.3,28.2,1.3c13.9-2,13.1,1.7,13.1,1.7
			S577.3,2828.9,565.5,2836.4z M651.3,2887.3c-22.4,8.6-40.6,0.5-49.3-13.6c-8.6-14.1-3.2-30.5,4.1-43c7.3-12.4,14.3-21.7,14.3-21.7
			s25.4,1.6,38.2,7.2c12.8,5.6,20.7,18.4,21.1,30.7C680,2859.1,673.7,2878.7,651.3,2887.3z M642.3,2789.8c0,0,14.4-15.8,22.9-31.4
			c8.5-15.6,35.2-19.9,47.6-12.8c12.4,7.1,19.1,23.4,19.4,35c0.3,11.6-8.1,26.5-18.4,31.9c-10.3,5.3-20.1,4.3-29,0.7
			C675.8,2809.5,652.8,2795.6,642.3,2789.8z M690.9,2877.8c0.3-3.2,7-20.2,7-20.2c3,13.8,13.4,25.5,12.8,25.2
			C710,2882.5,690.6,2881,690.9,2877.8z M720.8,2872.4c-18.9-8.8-20-35-20-35c18.2-5.3,49.2,41.5,49.2,41.5
			S737.5,2880.8,720.8,2872.4z M726.6,2827.2c0,0,14.4-12.4,20.7-23.6c17.1,2.3,29,4.3,47.8,38.1c-24.2-3.8-32.2-2-41.5-1.5
			C744.3,2840.9,727.2,2830.2,726.6,2827.2z"/>
		<path fill="#FFFFFF" d="M601.7,2766.8c3.7,1.4,2.5-7.3-5-17.3c-7.5-10-17-13.4-19-7.2C575.7,2748.5,589.5,2759.2,601.7,2766.8z"/>
	</g>
	<rect x="652.4" y="2641.4" fill="#FFFFFF" width="112.5" height="15.9"/>
	<rect x="631" y="2548.2" fill="#FFFFFF" width="112.5" height="15.9"/>
	<rect x="619.7" y="2448.6" fill="#FFFFFF" width="88.9" height="15.9"/>
	<rect x="625.1" y="2362.7" fill="#FFFFFF" width="88.9" height="15.9"/>
	<rect x="627" y="2275.4" fill="#FFFFFF" width="62.5" height="15.9"/>
	<rect x="627" y="2195.1" fill="#FFFFFF" width="62.5" height="15.9"/>
	<rect x="632.4" y="2125.8" fill="#FFFFFF" width="62.5" height="15.9"/>
	<rect x="635.7" y="2058.8" fill="#FFFFFF" width="62.5" height="15.9"/>
	<rect x="640.2" y="1987.4" fill="#FFFFFF" width="62.5" height="15.9"/>
	<rect x="641.9" y="1923.8" fill="#FFFFFF" width="62.5" height="15.9"/>
	
		<rect x="3290.5" y="2539.5" transform="matrix(0.9919 0.1268 -0.1268 0.9919 349.748 -401.8973)" fill="#FFFFFF" width="82.2" height="13.4"/>
	
		<rect x="3310.2" y="2462.6" transform="matrix(0.9919 0.1268 -0.1268 0.9919 340.1561 -405.0109)" fill="#FFFFFF" width="82.2" height="13.4"/>
	<rect x="3310.2" y="2384.7" fill="#FFFFFF" width="82.2" height="13.4"/>
	<rect x="3305.9" y="2311.9" fill="#FFFFFF" width="82.2" height="13.4"/>
	<rect x="3302.4" y="2244.7" fill="#FFFFFF" width="82.2" height="13.4"/>
	<rect x="3307.1" y="2180.3" fill="#FFFFFF" width="72.9" height="13.4"/>
	
		<rect x="3299.4" y="2119.1" transform="matrix(0.9979 -6.527132e-02 6.527132e-02 0.9979 -131.6397 222.2682)" fill="#FFFFFF" width="72.9" height="13.4"/>
	
		<rect x="3296.3" y="2058.3" transform="matrix(0.99 -0.141 0.141 0.99 -257.9165 490.6324)" fill="#FFFFFF" width="72.9" height="13.4"/>
	
		<rect x="3291.8" y="2002.3" transform="matrix(0.99 -0.141 0.141 0.99 -250.0608 489.4368)" fill="#FFFFFF" width="72.9" height="13.4"/>
	<path fill="#FFFFFF" d="M865.6,1426.6c-7.5-24.9-29.9-32.6-29.9-32.6c11.4-21.7-6.2-52-27.6-54c-21.4-2-24.9,4.7-43.3,18.9
		c-2.7-7.2-24.1-27.9-41.8-32.1c-17.7-4.2-40.6-0.7-47.5,15.9c-7,16.7,6.7,46.5,6.7,46.5s-16.9-0.2-22.9,10.7
		c-6,10.9-9.2,30.6,5,49.5c14.2,18.9,42.6,13.2,42.6,13.2s-2.7,22.1,18.9,36.3c24.1,14.4,48.5,7.7,59-2.5
		c10.5-10.2,11.4-29.3,11.4-29.3s28.9,8.2,41.3,4.9C849.9,1468.9,873.1,1451.5,865.6,1426.6z M793.9,1357.9
		c13.7-3,33.1,12.4,25.1,29.9c-5.5,7-46.2,19.4-58.4,17.9C777.3,1379.6,780.3,1360.9,793.9,1357.9z M703.7,1345.5
		c16.9-4.1,40.8,9.1,45.5,25.9c4.6,16.8,3.7,33.3,3.7,33.3s-38.2-20.7-49.3-27.7S686.8,1349.7,703.7,1345.5z M709.7,1438.8
		c-7.5,4.6-25.7,9.1-32.5-4.6c-3.2-10.6-1-24.4,6.5-30.9c1.8-4.6,2-10.9,2-10.9s4.1,7.8,26,13.6s25.9,10.3,25.9,10.3
		S717.1,1434.1,709.7,1438.8z M756.9,1487.1c-23.7,2.2-35.8-20.4-31.5-35.8c4.3-15.4,26.4-29.4,26.4-29.4s22.1,11.4,28,28
		C785.8,1466.5,769.5,1484.2,756.9,1487.1z M818.1,1452c-17.2-1-44.8-30.9-44.8-30.9s33.1-8.5,45.4-10c12.3-1.5,25.4,5.3,27.9,18.6
		C849,1446.6,835.2,1453,818.1,1452z"/>
	<path fill="#FFFFFF" d="M1247.6,1370.1c0,0-6,46.5-18.4,67.9c-25.4,4.5-47.3-27.9-47.3-27.9c59.5-27.1,58.2-65.4,58.2-65.4
		l-16.9-1.2c-3.7,24.6-15.4,37.8-51.5,51.3c-36.1,13.4-61.7,9.7-111.5,2.5c-49.8-7.2-75.9-25.6-95.8-32.4
		c-11.4-0.7-13.9,7.7-13.7,9.2c0.2,1.5,13.7,10.2,13.7,10.2s-2.7,19.7,1.7,35.8c4.5,16.2,8,34.3,19.4,42.6
		c12.2-5.7,54.7-51.5,54.7-51.5l11.9,2c3.7,23.9,22.9,52.3,22.9,52.3s-2.2,20.7,20.4,6.5c22.6-14.2,44.8-51.5,44.8-51.5l22.6-4
		c0,0,16.7,20.4,35.3,29.4c25.1,12.2,57,12.9,57,12.9L1247.6,1370.1z M989.2,1440.3c-11.4-16.8-10.3-49.9-10.3-49.9
		s28.9,13.9,43,16.6C1021.9,1406.9,996.2,1435.1,989.2,1440.3z M1091.9,1458.5c-14.3-14.3-22.2-41.8-22.2-41.8s36.7,4.8,50.9,4
		C1120.6,1420.7,1099.2,1454.4,1091.9,1458.5z"/>
	<path fill="#FFFFFF" d="M2911.4,1739.7c2.7-15.3-7-39.7-25.4-44c-18.4-4.3-41.8,2.5-44,42.3c-12.1-20.4-26-28-44-29.4
		c-17.9-1.3-27,2.5-25.1,21.9s8.8,34.2,25.7,42.8c0,13.1,5.1,20.7,5.1,20.7s-29.2,23.1-18.4,48.1c10.8,25.1,36.8,31.2,60.2,15.9
		c10,12.4,29.9,28.5,53.6,17.3c23.7-11.3,23.1-39.8,17.9-56.2c0,0,36.8-5.2,40.3-31.8C2960.2,1765.3,2949.2,1739.9,2911.4,1739.7z
		 M2878.2,1712.5c14.4,0.3,17.3,22.1,10.9,32.4c-6.3,10.3-16.4,28.5-16.4,28.5c-10.3-10-11.6-21.6-13.6-31.4
		C2857.1,1732.3,2863.8,1712.2,2878.2,1712.5z M2835.9,1760.8c14.6,0.3,28.7,26.1,28.7,26.1c-18.2,14.2-42,5.9-46.5-3.1
		C2813.7,1774.9,2821.3,1760.5,2835.9,1760.8z M2792.9,1725c26,4.6,29,8.3,31.2,20.4c-13.1,0.2-19.9,13.6-19.9,13.6
		S2784.8,1742.4,2792.9,1725z M2834.9,1843.3c-13.8,9.1-33.7,0.7-32.5-17.1c3-14.6,10.8-16.8,10.8-16.8s30,5.8,39.8-1.8
		C2853,1807.6,2848.7,1834.1,2834.9,1843.3z M2892,1859.9c-9.1,4.8-25.2,1-28.9-14.4c-3.6-15.4,12.3-46.5,12.3-46.5
		s16.4,10,23.9,24.2C2906.7,1837.5,2901.1,1855,2892,1859.9z M2938.4,1784c-2.8,13.6-36,23.7-58.6,0.5c3.8-4,18.9-25.2,39.5-27
		C2931.5,1757.2,2941.3,1770.4,2938.4,1784z"/>
	<path fill="#FFFFFF" d="M3169.1,2848.3h-98v-22.8h98c0.9,0,1.7,0.8,1.7,1.7v19.4C3170.8,2847.5,3170,2848.3,3169.1,2848.3z"/>
	<path fill="#FFFFFF" d="M3169.1,2785.9h-98v-22.8h98c0.9,0,1.7,0.8,1.7,1.7v19.4C3170.8,2785.2,3170,2785.9,3169.1,2785.9z"/>
	<path fill="#FFFFFF" d="M1639.6,2488.5c1.5,9.8-4.6,10.7-13.6,3.5c-8.9-7.2-28.9-11.4-35.3-11.5c-4.5-4.2,1.9-10.1,11.8-8.4
		C1612.4,2473.9,1638.1,2478.8,1639.6,2488.5z"/>
	<path fill="#FFFFFF" d="M1517.5,2430.2c-12.3-6.5-19.7-6.5-22.6-4c-3,2.5,1.2,7.6,12,10.8c10.9,3.2,22.5,14,22.5,14
		c2.5,3,9.3,2.8,9.3,0C1538.8,2448.4,1529.8,2436.7,1517.5,2430.2z M1517.5,2430.2c-12.3-6.5-19.7-6.5-22.6-4
		c-3,2.5,1.2,7.6,12,10.8c10.9,3.2,22.5,14,22.5,14c2.5,3,9.3,2.8,9.3,0C1538.8,2448.4,1529.8,2436.7,1517.5,2430.2z M1698.9,2488.5
		c-9.3-30.5-47.4-48.1-70-47.4c10.9-11.9,22.6-23.2,23.9-33.5c1.3-10.3-2-21.2-9.3-27.9c-7.3-6.6-32.4-26.5-46.5-29.9
		c-14.2-3.4-41.6,3.1-46.3,37.5c0,0-20.4-23.2-39.8-28.9c-19.4-5.7-46.3,3.7-64.7,22.9c-18.4,19.2-26.9,61,9.2,81.1
		c-27.9,19.4-39.8,41-27.9,70.9c11.9,29.8,42.5,42.8,76.9,29.6c2.5,13.4,11.9,46.5,41.1,49c29.1,2.5,71.7-10.1,79.1-62.1
		c0,0,17.9,14.3,44.8,6C1696.3,2547.5,1708.2,2519,1698.9,2488.5z M1569.4,2382.5c5.5-13.4,14.4-20.6,27.1-14.2
		c12.7,6.5,31.1,19.7,34.3,23.1c3.2,3.5,3.7,17.9-2.5,22.9c-6.2,5-41.1,30.2-50.3,39c-9.2,8.8-15.6,14.5-15.6,14.5h-6.8
		C1555.7,2467.8,1563.9,2395.9,1569.4,2382.5z M1449.7,2425.5c-5.7-14.7,10.9-40.3,33.1-47.3c22.2-6.9,41.1,2.7,50.3,19.7
		c9.2,16.9,10.2,62.5,10.2,62.5c-8.2-4-37.3-8.5-58.7-9.5C1463.1,2449.9,1455.4,2440.2,1449.7,2425.5z M1495.7,2545.5
		c-8.2,5.2-30.4,10-46.3-12.7c-15.9-22.6,2.2-47.1,15.2-54.9c12.9-7.8,30.6-10.4,66,0c-36.3,8.4-50,32.8-46.5,36.5
		c3.5,3.7,32.1-30.1,49-25.4c0,0-12.9,20.1-19.2,32.8C1507.7,2534.5,1503.9,2540.2,1495.7,2545.5z M1569.6,2592.7
		c-35.3,7.5-51.7-21.1-47.3-41c4.5-19.9,31.9-58.8,34.1-58.8c2.3,0,40.8,16.2,46.5,45.1C1605.7,2548.7,1605,2585.3,1569.6,2592.7z
		 M1682.6,2513.8c-1.2,21.7-34.8,32.4-55.7,14c-20.9-18.4-32.1-42.5-55-51.5c0,0,33.4-25.1,65-17.4
		C1668.4,2466.6,1683.9,2492.2,1682.6,2513.8z M1573.1,2446.7c8.6,2.6,23.9-22.4,30.8-25.3c6.9-2.8,10.5-3.2,7.8-6.9
		c-2.6-3.7-13.9-4.2-28.6,8.8C1568.5,2436.3,1564.5,2445.2,1573.1,2446.7z M1506.9,2437.1c10.9,3.2,22.5,14,22.5,14
		c2.5,3,9.3,2.8,9.3,0c0-2.7-9-14.4-21.3-20.9c-12.3-6.5-19.7-6.5-22.6-4C1491.9,2428.7,1496.1,2433.8,1506.9,2437.1z"/>
	<path fill="#FFFFFF" d="M1626,2492.1c-8.9-7.2-28.9-11.4-35.3-11.5c-4.5-4.2,1.9-10.1,11.8-8.4c9.9,1.7,35.6,6.6,37.1,16.4
		C1641,2498.4,1635,2499.3,1626,2492.1z"/>
	<path fill="#FFFFFF" d="M1538.8,2451.1c0,2.8-6.8,3-9.3,0c0,0-11.7-10.8-22.5-14c-10.8-3.2-15-8.3-12-10.8c3-2.5,10.3-2.5,22.6,4
		C1529.8,2436.7,1538.8,2448.4,1538.8,2451.1z"/>
	<path fill="#FFFFFF" d="M1538.8,2451.1c0,2.8-6.8,3-9.3,0c0,0-11.7-10.8-22.5-14c-10.8-3.2-15-8.3-12-10.8c3-2.5,10.3-2.5,22.6,4
		C1529.8,2436.7,1538.8,2448.4,1538.8,2451.1z"/>
	<path fill="#FFFFFF" d="M1604,2421.4c-6.9,2.9-22.3,27.9-30.8,25.3c-8.6-1.5-4.6-10.3,10.1-23.4c14.7-13.1,26-12.6,28.6-8.8
		C1614.4,2418.2,1610.9,2418.5,1604,2421.4z"/>
	<path fill="#FFFFFF" d="M1626,2492.1c-8.9-7.2-28.9-11.4-35.3-11.5c-4.5-4.2,1.9-10.1,11.8-8.4c9.9,1.7,35.6,6.6,37.1,16.4
		C1641,2498.4,1635,2499.3,1626,2492.1z"/>
	<path fill="#FFFFFF" d="M1604,2421.4c-6.9,2.9-22.3,27.9-30.8,25.3c-8.6-1.5-4.6-10.3,10.1-23.4c14.7-13.1,26-12.6,28.6-8.8
		C1614.4,2418.2,1610.9,2418.5,1604,2421.4z"/>
	<path fill="#FFFFFF" d="M2428.8,2622.4c-12.8,0-24.5-1.4-34.6-4.2c-70-18.5-110-55.1-122.2-112c-17.3-72.1,35.1-134.3,78.7-145.5
		c40.5-10.3,102.9,1.6,118.1,30.1c1.6,2.9,1.3,6.5-0.7,9.1c-2,2.7-5.3,3.9-8.6,3.2c-10-2.1-18.4-0.7-24.2,4
		c-5.2,4.2-8.1,11.1-8.1,19.2c0,22.5,4.4,47.8,57.2,62.2c56.4,15.4,107.6-6.1,108.1-6.3c4.3-1.9,9.4,0.1,11.2,4.5
		c1.9,4.3-0.1,9.3-4.4,11.2c-2.3,1-57,24.1-119.4,7.1c-61.8-16.9-69.8-50.9-69.8-78.7c0-13.4,5.1-24.9,14.4-32.5
		c4.3-3.5,9.4-6,15.1-7.4c-20-10.8-55.7-16.7-84.7-9.3c-37,9.4-81.3,62.8-66.3,125.1c10.9,50.9,45.9,82.3,110,99.3
		c42.8,12,119.7-6.4,191.5-45.7c4.1-2.3,9.3-0.7,11.6,3.4c2.3,4.1,0.7,9.3-3.4,11.6C2538.1,2603.9,2475.7,2622.4,2428.8,2622.4z"/>
	<path fill="#FFFFFF" d="M2467.9,2582.1c-37.5,0-79.1-10.2-108.6-33.2c-27.9-21.7-42.3-61.1-34.2-93.6c6-24.3,23.8-40.8,48.9-45.3
		c2.9-0.5,5.9,0.5,7.9,2.7c2,2.2,2.7,5.3,1.8,8.2c-6.1,20.2-1.6,51.4,19.1,72.1c16.4,16.4,86.1,56.8,187.8,28.3
		c4-1.1,8.3,0.9,10.1,4.7c1.7,3.8,0.4,8.4-3.1,10.7c-1.5,1-37.2,24.3-77.6,37.8C2505,2579.5,2487,2582.1,2467.9,2582.1z
		 M2364.5,2430.7c-14.4,6.6-20.4,18.7-22.9,28.7c-6.4,25.8,5.7,58.5,28.2,76.1c40,31.2,104.9,36.1,144.7,22.9
		c9.6-3.2,19.1-7.1,27.8-11c-72.9,5.7-129.5-20.1-151.6-42.2C2369.9,2484.3,2362.4,2454.6,2364.5,2430.7z"/>
	<path fill="#FFFFFF" d="M1901.1,2578c-30.3,0-64.2-7.5-72.8-10c-3-0.9-6.1-2.1-9.3-3.3c-17-6.7-40.2-15.9-87.7,10.9
		c-4.1,2.3-9.3,0.9-11.6-3.2c-2.3-4.1-0.9-9.3,3.2-11.6c54.5-30.7,84.5-18.9,102.3-11.9c3,1.2,5.5,2.2,7.8,2.8
		c19.7,5.7,80.2,15.5,99.4,3.9c0.1-0.1,0.3-0.2,0.4-0.2c34.7-18.5,71.8-20.9,113.5-7.4c32.5,10.6,72.9,13.4,89.6,11.4
		c10.6-1.3,23.8-6.6,36.7-11.8c8.6-3.5,17.6-7.1,25.7-9.4c22-6.3,54.3,1.7,69.2,9.2c4.2,2.1,5.9,7.2,3.8,11.5
		c-2.1,4.2-7.2,5.9-11.5,3.8c-12.7-6.3-40.2-12.9-56.9-8.1c-7.3,2.1-15.4,5.4-24,8.9c-13.9,5.6-28.2,11.4-41,13
		c-20.9,2.5-63.9-1.4-96.9-12.1c-37.5-12.2-69.3-10.3-100,6.1C1931.4,2576,1916.7,2578,1901.1,2578z"/>
	<path fill="#FFFFFF" d="M2085.7,2517c-24.5,0-42.5-7.5-56.5-15c-7.1-3.8-44.8-22.3-85.2-9.6c-38.1,12-55.9,17.3-78.1,17.1
		c-11-0.1-21.7-4.9-32.9-10c-12.6-5.7-26.9-12.1-44-12.8c-30-1.3-56.2,19.8-56.4,20.1c-3.6,3-9,2.5-12-1.2c-3-3.6-2.5-9,1.2-12
		c1.3-1,31.3-25.5,68-23.9c20.3,0.9,36.9,8.3,50.3,14.3c10,4.5,18.7,8.4,26.1,8.5c19.6,0.3,36.4-4.8,72.7-16.3
		c46.9-14.8,90.2,6.4,98.4,10.8c18.6,10,42.7,18.8,81.3,8.2c41.8-11.4,76.4-17.5,109.3-10.3c4.6,1,7.5,5.6,6.5,10.2
		c-1,4.6-5.6,7.5-10.2,6.5c-25.6-5.6-54-2.8-101.2,10.1C2109.2,2515.4,2096.8,2517,2085.7,2517z"/>
	<path fill="#FFFFFF" d="M3071.5,1701.1c0,0,18.7-18.3,23.6-23c5-4.7,15.8-2.2,16.2,2.6c0.4,4.9-3.9,12.2-11.1,19.5
		c-7.2,7.3-13.6,12.2-13.6,12.2L3071.5,1701.1z"/>
	<path fill="#FFFFFF" d="M3120.6,1736.4c0,0,32.1-22,39.2-24c7.1-2,13.7,3.1,10.6,10.5c-3.1,7.3-29,29.2-29,29.2L3120.6,1736.4z"/>
	<path fill="#FFFFFF" d="M3168.4,1777.6c0,0,25.4-13.8,34.7-14.9c9.3-1.1,10.7,11.4,6.6,15.6c-4.1,4.1-30.1,14.7-30.1,14.7
		L3168.4,1777.6z"/>
	<path fill="#FFFFFF" d="M3146.4,1900.9c0,0,11.1-31,16.2-39.2c5.1-8.2,16.1-6.3,17.3-1.5c1.2,4.9-7.8,39.4-7.8,39.4L3146.4,1900.9z
		"/>
	<path fill="#FFFFFF" d="M3073,1910.9c0,0,3.9-29.6,5.6-42.3s9.2-14.1,13.3-13.1c4.1,1,8.1,4.6,8.1,15.1s2.7,38,2.7,38L3073,1910.9z
		"/>
	<path fill="#FFFFFF" d="M3011.6,1926.7c0,0,1.5-32.7,6.3-39.1c4.9-6.3,15.7-2.6,15.9,2.9c0.2,5.5,2.1,31.5,2.1,31.5L3011.6,1926.7z
		"/>
	<path fill="#FFFFFF" d="M3129.4,2068.7c0,0-19-35.9-19-41.1s10.8-11.9,15.9-5.5s21.2,31,21.2,31L3129.4,2068.7z"/>
	<path fill="#FFFFFF" d="M3165.9,2031.7c0,0-8.5-29.9-10.3-40.7s0.2-14.3,4.6-14.8c4.4-0.5,9.1,2,16.4,16.7s13.7,27.9,13.7,27.9
		L3165.9,2031.7z"/>
	<path fill="#FFFFFF" d="M3375,1997.6c0,0,15.3-25.2,21.6-33.2s18.1-6.6,17.4,5.5c-0.7,12.1-19.5,43.8-19.5,43.8L3375,1997.6z"/>
	<path fill="#FFFFFF" d="M3427.4,2044c0,0,23.1-31.5,30.4-35.7c7.3-4.1,14.4,2.7,12.4,12.3c-2,9.6-23.1,44.4-23.1,44.4L3427.4,2044z
		"/>
	<path fill="#FFFFFF" d="M3469,2084.7c0,0,14.6-18.9,22.4-13.8c7.8,5.1-8,40.3-8,40.3L3469,2084.7z"/>
	<path fill="#FFFFFF" d="M3402.1,1888.1c0,0-12.6-22.4-20.4-23.7c-7.8-1.3-3.5,21.9-3.5,21.9"/>
	<path fill="#FFFFFF" d="M3472,1898.5c0,0-6.8-50.9-12.6-55.7c-5.8-4.8-15.4-5.6-15.6,5.3c-0.2,10.9-4.5,59.4-4.5,59.4L3472,1898.5z
		"/>
	<path fill="#FFFFFF" d="M3510.6,1907.5c0,0,8.5-41.8,12.8-47.8c4.3-6,16.8-2.2,17.8,11.7s2.5,58.1,2.5,58.1L3510.6,1907.5z"/>
	<path fill="#FFFFFF" d="M3562.4,1921.2c0,0,8.8-15.3,15.4-14.6s4.6,30.5,4.6,30.5L3562.4,1921.2z"/>
	<path fill="#FFFFFF" d="M3331.2,1817.4c-0.4-0.5-12.2-16.5-3.4-19c8.8-2.5,22.8,9,22.8,9"/>
	<path fill="#FFFFFF" d="M3374.7,1784.9c0,0-11.3-10.3-18.4-19.3s-4.5-17.9,5.8-15.7c10.3,2.1,42.2,23.9,42.2,23.9L3374.7,1784.9z"
		/>
	<path fill="#FFFFFF" d="M3426,1751.6c0,0-14.8-14.8-21.7-23.6c-6.8-8.8-2.9-14.8,2.2-17.4s42.1,28.9,42.1,28.9L3426,1751.6z"/>
	<path fill="#FFFFFF" d="M3470.7,1728.5c0,0-14.8-22.8-16.4-26.4c-1.6-3.6,6.5-9.6,13.7-6c7.2,3.6,23.4,26.4,23.4,26.4
		L3470.7,1728.5z"/>
	<path fill="#FFFFFF" d="M558,1866.1c0,0-6.2-33.8-17.2-36.6s-5,48.5-5,48.5l20.6-11.7L558,1866.1z"/>
	<path fill="#FFFFFF" d="M580.7,1853.7c0,0,4.5-44.4,8-50.4c3.5-6,16.2-4,16.4,9.2c0.2,13.2,0,34.5,0,34.5L580.7,1853.7z"/>
	<path fill="#FFFFFF" d="M817.3,1759.2c0,0-1.7-32.4,4.5-40c6.2-7.6,12.6-5,17.6,18.8c5,23.7,6.8,33.6,6.8,33.6L817.3,1759.2z"/>
	<path fill="#FFFFFF" d="M875.8,1774c0,0,7.5-33.3,12.4-40.8c5-7.5,14.4-2.9,15.2,7.5c0.7,10.4,2,47.7,2,47.7l-29.6-13.2"/>
	<path fill="#FFFFFF" d="M918.1,1795.1c0,0,11.7-24.4,18.4-22.1s6.7,26,6.7,26L918.1,1795.1z"/>
	<path fill="#FFFFFF" d="M456,1707.6c0,0,21.9-32,31.6-33.4c9.7-1.4-2,33.4-2,33.4H456z"/>
	<path fill="#FFFFFF" d="M512.2,1714c0,0,26.6-39.8,37.8-41.6c11.2-1.7-5.5,44-5.5,44l-32.4-1.2"/>
	<path fill="#FFFFFF" d="M566,1724.7c0,0,32.4-27.1,41.8-26.9c9.5,0.2,12.7,23.6-22.9,39.1c-24.4-5.7-17.7-8.9-17.7-8.9"/>
	<path fill="#FFFFFF" d="M627.5,1645.6c0,0,28.4-2,31.9-9.2c3.5-7.2,3-12.7-14.2-12s-34.8,2.2-34.8,2.2l7.2,24.9L627.5,1645.6z"/>
	<path fill="#FFFFFF" d="M588.4,1584.4c0,0,28.4-11.9,36.6-10.9c8.2,1,11.9,3.5,10.7,9.5c-1.2,6-40.6,18.2-40.6,18.2L588.4,1584.4z"
		/>
	<path fill="#FFFFFF" d="M548.8,1542.6c0,0,29.6-15.9,35.6-14.2c6,1.7,7.5,6.2,7.2,11.1c-0.3,4.9-35.1,22-35.1,22l-8.2-20.2"/>
	<path fill="#FFFFFF" d="M767.9,1665.1c0,0-9.1-14.6-4.8-19.7c4.3-5.1,18.7-1,24.1,8.3C785.6,1660.8,767.9,1665.1,767.9,1665.1z"/>
	<path fill="#FFFFFF" d="M808,1633.9c0,0-16.6-23.2-13.3-30.2s14.6-6.8,25.1,6.3c10.5,13.1,10.5,13.1,10.5,13.1L808,1633.9z"/>
	<path fill="#FFFFFF" d="M866.9,1606c0,0-15.3-26.4-15.3-29.5s6.6-11.4,16.8-2.3c10.1,9.1,24.7,26.9,24.7,26.9l-27,5"/>
	<path fill="#FFFFFF" d="M918.7,1597.4c0,0-8.1-26.7-6-28.7c2.2-2,6.8-5.5,13.6,1.3c6.8,6.8,24.1,30.7,24.1,30.7L918.7,1597.4z"/>
	<path fill="#FFFFFF" d="M2875.1,2439.2L2875.1,2439.2l-9.2-30.5l-20.9-69.2c0,0,13.9-13,12.9-38.2c-1-25.1-26.5-123.7-49.4-173.9
		l-39.1,10.5c0,0,1,82.1,8.3,125.5c7.3,43.5,16.3,69,47.8,81.6l29.6,97.2l9.1,30v0l39.3,129.2h20.1v-1.9L2875.1,2439.2z
		 M2832.1,2324.6c-10.2,3.3-23.9-1.4-31.4-48.7c-7.5-47.3-14.4-122.4-14.4-122.4l9.7-4.5c0,0,9.7,13.2,24.9,65.9
		c15.2,52.8,17.9,64.2,19.4,83.9C2841.8,2318.5,2837.6,2323.8,2832.1,2324.6z"/>
	<path fill="#FFFFFF" d="M2927.7,2129.6c-16.9,36.8-52.5,152.3-55,174c-2.5,21.6,15.2,37.3,15.2,37.3l-21.9,67.8l-10.9,33.7
		l-61.8,191.1l19.4-3.1c0,0,26.4-81.5,51.5-158v0c3.7-11.3,7.4-22.4,10.9-33.2v0c15.7-47.5,29.2-87.4,33-96
		c30.5-13.3,36.1-25.9,44.5-68.4c8.3-42.5,16.2-134.5,16.2-134.5L2927.7,2129.6z M2931.9,2284.1c-11.4,36.9-25.4,44.1-33.6,39.1
		c-16.9-9.2,1-59.5,11.7-93.6c10.7-34.1,26.9-78.4,26.9-78.4l13,3.7C2949.8,2155,2943.3,2247.3,2931.9,2284.1z"/>
</g>
</svg>
