<?xml version="1.0" encoding="utf-8"?>
<!-- Generator: Adobe Illustrator 27.7.0, SVG Export Plug-In . SVG Version: 6.00 Build 0)  -->
<svg version="1.0" id="Layer_1" xmlns="http://www.w3.org/2000/svg" xmlns:xlink="http://www.w3.org/1999/xlink" x="0px" y="0px"
	 viewBox="0 0 4000 4000" enable-background="new 0 0 4000 4000" xml:space="preserve">
<g>
	<path fill="#F9A747" d="M2176.3,2024.7c-21.4,0-97.3-7.8-131.3-65.4c-22.5-44.5-25.6-109.8-26.7-131.8c-1-22,0.4-38.3,2.6-43.4
		c7.3-16.7,72.2-39.2,106.2-45.5s77.4-4.7,92.1-3.1c14.6,1.6,59.6,34,70.1,60.2c10.5,26.2,17.3,44.5,29.8,120.3
		s12.6,116.4,4.7,156.4c-7.8,40-30.6,108.3-111.4,144.4c-80.8,36.1-157.7,35.3-226.7,29c-69-6.3-152.2-56.5-187.5-110.6
		s-69-145.1-62-234.6c7.1-89.4,43.9-186.7,96.5-254.2s142.8-149.9,261.3-170.3c115.3-20.4,211.8,13.3,251.1,25.9
		s136.5,79.2,185.9,156.1c49.4,76.9,74.5,130.2,82.4,185.9c7.8,55.7,6.3,164.8-16.5,250.3c-22.8,85.5-71.4,197.7-140.4,275.4
		s-163.2,116.9-175.7,123.2s-20.1,13.6-39.5,14.6c-19.4,1-92.1,32.4-111.4,40.8c-13.6,3.7-45.5-6.3-79.5,2.6
		c-34,8.9-50.2,16.2-75.3,19.4c-25.1,3.1-56,1-81.1-1.6s-82.6-1.6-112.5-7.3c-29.8-5.8-43.4-13.6-56.5-19.4
		c-13.1-5.8-21.4-31.9-34.5-38.2c-13.1-6.3-19.9,0.5-34.5-6.3c-14.6-6.8-22-17.8-41.3-18.3c-23.5-30.3-71.7-87.3-98.3-139.7
		c-26.7-52.3-33.5-106.7-41.8-119.8c-8.4-13.1-8.4-15.2-8.4-33.5c0-18.3-13.6-38.7-23-45.5c-9.4-6.8-4.7-33.5-3.7-36.6
		c1-3.1,8.3-9.4-1.6-25.1c-9.9-15.7,0-56.5-0.5-69c-0.5-12.6,11-64.9,17.3-102.5s17.7-116.1,20-124.4c2.4-8.2,15.7-0.4,21.2-5.5
		c5.5-5.1,30.6-52.2,42.8-65.5c12.2-13.3,9-21.2,7.8-29.8c-1.2-8.6,4.3-32.2,18.4-47.9c-15.3,11.4-42.8,46.3-58.5,72.2
		c-3.5-17.3,26.7-76.1,49.8-112.2c23.1-36.1,82-100.7,112.8-131s70.1-63.3,79.5-67.5c9.4-4.2,29.3,4.2,46.6-7.3
		c17.3-11.5,28.8-27.2,30.9-28.2s45.5-2.6,54.4-2.6c8.9,0,7.3-33.5,8.4-35c1-1.6,70.6-30.3,110.4-44.5
		c39.8-14.1,88.4-15.7,118.2-17.3c29.8-1.6,106.7-0.5,176.8,18.3c70.1,18.8,149.6,42.9,149.6,42.9c-58.6-38.2-145.4-93.6-261-109.8
		c-98.9-7.8-187.5-4.7-240.1,14.1c-52.6,18.8-68.5,27.2-77.4,30.9c-8.9,3.7-48.6,14.1-74.3,33.5s-78.5,69.6-93.6,80.5
		c-15.2,11-34.5,19.9-40.8,24.6c-6.3,4.7,17.8,4.2,17.8,4.2s-4.2,7.3-14.6,13.1c-10.5,5.8-14.1,0-25.1,6.3
		c-11,6.3-14.6,12.6-14.6,12.6s22.5,1.6,25.1,5.2c2.6,3.7-24.1,28.2-28.2,34c-4.2,5.8-18.8,5.8-20.9,9.9c-2.1,4.2-13.6,22-15.7,26.7
		c-2.1,4.7-15.2,5.2-17.8,3.7c-2.6-1.6,0-13.1-2.1-17.3s-6.3-14.1,8.4-12.6c14.6,1.6-20.4-12-30.9-1.6
		c-10.5,10.5-38.2,41.3-54.9,72.7c-16.7,31.4-37.1,61.2-42.9,96.2c-12.6-3.1-25.1,6.8-28.2,20.9c-3.1,14.1-21.4,45.5-20.4,67
		c1,21.4-13.6,44.5-13.6,62.8c0,18.3-18.8,101.5-19.4,142.8c-0.5,41.3-9.2,77.2-3.1,128.1c6,51,19.4,110.6,22.5,127.1
		s18.8,43.2,14.1,70.6c-11.8-13.3-15.7-40.8-15.7-40.8c-5.2,2.6-7.3,20.4,11.5,65.4s44.5,104.6,63.8,134.9s33,59.1,69.6,84.7
		c36.6,25.6,68,39.2,101.5,60.2s53.4,46,125,66.4c71.7,20.4,150.6,27.2,192.5,26.7c2.1-16.7,11-25.1,38.7-20.9s97.3-1,151.7-3.1
		c54.4-2.1,85.3-6.3,119.8-16.2c34.5-9.9,99.4-35,141.2-48.1c41.8-13.1,92.1-45,124.5-70.1c32.4-25.1,150.1-133.1,190.9-252.4
		c36.9-111.4,40.8-196.1,36.1-272.2c-4.7-76.1-26.7-189.9-107.5-297.4c-80.8-107.5-156.1-197.7-315.4-245.6
		c-116.9-25.9-209.5-21.2-297.4,7.8c-87.9,29-204,140.4-236.2,180.5c-32.2,40-85.5,135.7-100.4,239.3c-14.9,103.6,0,182,29.8,251.1
		c29.8,69,128.7,205.6,299.7,223.6c127.9,11.8,190.7-8.6,223.6-12.6s81.6-21.2,157.7-156.9c56.5-109.8,39.2-199.3,36.9-219.7
		c-2.4-20.4-7.8-85.5-23.5-128.7c-15.7-43.2-43.4-86.8-110.9-122.4c-67.5-35.6-117.7-43.4-206.6-18.3c-64.3,23-80,41.8-86.8,63.8
		c-6.8,22-3.1,62.8,0.5,106.7s3.1,91.5,23.5,120.3c20.4,28.8,60.5,63.3,96.6,69.2C2162.6,2049.5,2178.7,2041.8,2176.3,2024.7z"/>
	<path fill="#F9A747" d="M2789.3,1693.1c-0.8-5.2-37.7-4.7-41.3-8.6s-4.4-19.9,9.9-21.4c14.4-1.6,44.9-5.4,68.8-18.7
		c23.9-13.3,40-21.6,47.5-23.5c7.5-2,54.9-2.7,94.5-4.3c39.6-1.6,146.5-12.8,195.6-18c49.2-5.2,119.3-25.6,143.3-19.9
		c-20.9,14.6-88.9,40.8-166.3,71.1c-77.4,30.3-145.9,58.6-235.4,81.6c-89.4,23-125.5,18.3-135.5,8.4
		C2760.6,1729.7,2790.9,1704,2789.3,1693.1z"/>
	<path fill="#F9A747" d="M2736.1,1440.3c7.5-10.6,59-91.9,94.5-132.7c35.6-40.8,101.5-103,158-150.1
		c56.5-47.1,102.5-79.5,128.1-97.3c25.6-17.8,33-27.2,29.3-36.1c-3.7-8.9-45.5-7.3-94.7,23c-49.2,30.3-72.2,34.5-148.5,102
		c-75.8,61.7-129.7,109.3-149.6,123.4c-19.9,14.1-58.1,46.6-71.7,54.9c-13.6,8.4-22,13.6-28.8,13.6c-6.8,0-31.4,2.1-39.2,7.8
		c-7.8,5.8-12.6,15.7-21.4,18.3s-36.1,15.2-38.7,17.8s18.8,1.6,27.7,11.5c8.9,9.9,9.9,28.8,8.4,31.4c-1.6,2.6-32.4,22.5-32.4,22.5
		s9.4-1,12,7.3c2.6,8.4,5.8,23.5,8.9,25.1c3.1,1.6,33,8.4,56-4.2C2657,1466,2730.5,1444.9,2736.1,1440.3z"/>
	<path fill="#F9A747" d="M2386.1,1212.4c0,0,63.3-56,68.5-61.2c5.2-5.2,50.7-136.5,73.2-206.6s80-268.1,80-268.1
		c-94.1,139.7-141.2,267.5-178.9,349.1S2384.8,1181,2386.1,1212.4z"/>
	<path fill="#F9A747" d="M2140.8,1179.9c-7.3,5.8-29.3-2.1-36.6-14.1c-7.3-12-12-40.3-18.3-44.5c-6.3-4.2-7.3,10.5-15.7,9.4
		c-8.4-1-11.5-9.4-17.3-10.2c-5.8-0.8-12.6-28-16.7-75.6c-4.2-47.6-10.5-177.1-8.9-246.9c1.6-69.8,1.6-214.5,3.1-219.2
		c1.6-4.7,9.4,63.3,8.9,65.4s1.6-35,4.7-39.2s9.4,38.7,9.9,46.6c0.5,7.8-2.1-107.2,0-119.3c2.1-12,9.9,48.6,17.8,106.7
		c7.8,58.1,29.8,154.8,31.9,182.5c2.1,27.7,5.2,84.2,7.8,94.1c2.6,9.9,14.1,2.1,14.1,7.3c0,5.2,5.8,32.4,5.8,32.4l-14.1-1
		c0,0,2.6,47.1,11,75.3c8.4,28.2,24.1,59.1,25.6,68s0,35.6,0,35.6s-11.5,0-13.6,10.5C2138.1,1154.3,2137.6,1171,2140.8,1179.9z"/>
	<path fill="#F9A747" d="M1683.6,1198.8c13.3,8.7,31.9-3.1,38.2-11c6.3-7.8,4.7-25.1,2.1-29.8c-2.6-4.7-5.8-28.2-5.8-28.2l-8.9,8.4
		c0,0-47.1-69.6-81.1-130.2s-69-123.4-94.1-173.1s-57-126.1-57-126.1s33.5,102.5,40.3,134.4c6.8,31.9,20.9,79,20.9,79l-26.2-50.7
		c0,0,30.3,91.5,52.3,148S1635,1166.9,1683.6,1198.8z"/>
	<path fill="#F9A747" d="M1392.1,1498.7c5.5,1.2,33.3-3.5,43.5-9.4c10.2-5.9,4.3-19.6,0-25.1s-32.6-10.2-33-13.3
		c-0.4-3.1-0.8-7.1,4.3-7.5s16.1,0,16.1,0s0.2-17.7-6.4-22.4c-6.6-4.7-23.4-3.5-27.3-8.2c-3.9-4.7,1.2-12.9,0-17.3s-27.9,3.9-51.4,2
		c-23.5-2-85.5-32.6-122.8-65.1c-37.3-32.6-96.9-78.8-104-85.9c-7.1-7.1-10.6,5.5-23.5-2.7s-53.4-46.7-58.8-48.6
		c-5.5-2,41.6,63.6,53,71.4c11.4,7.8,75.3,64.7,76.5,73s-57.3-41.2-62.8-42.8c-5.5-1.6,59.2,57.3,54.1,66.3
		c-5.1,9-65.9-60.4-71.8-61.2c-5.9-0.8,38.8,52.2,72.2,86.3s51.4,58.5,82.4,89c31,30.6,85.9,65.1,106.7,77.3
		c20.8,12.2,47.9,16.9,47.9,13.7s14.1-20,6.7-33.7S1392.1,1498.7,1392.1,1498.7z"/>
	<path fill="#F9A747" d="M1302.1,1845.5c-5.5-11.5,4.4-21.4,12-26.9c7.6-5.5,9.4-16-1.6-24.1c-11-8.1-46.3-17.3-50.7-28.2
		c-4.4-11,6.5-13.1,8.9-21.4s-4.2-31.4-9.9-23.8s1.8,22.2-8.1,17.8c-9.9-4.4-33.5-1-36.6,2.6c-3.1,3.7-1.3,11.5-14.1,9.4
		c-12.8-2.1-134.2-1-164.5-3.1c-30.3-2.1-153-1.3-219.4-13.9s-211.3-49.7-213.4-49.7c-2.1,0,21.4,20.9,61.2,31.4
		c39.8,10.5,99.9,45.5,213.9,67c-10.5,0.5-79-4.7-87.9-3.1c-8.9,1.6,30.3,22.5,98.9,39.2c68.5,16.7,124,30.9,259.4,29
		C1285.6,1845.8,1302.1,1845.5,1302.1,1845.5z"/>
	<path fill="#F9A747" d="M1287.7,2185.2c-8.3-3.3,13.1-15.7,13.6-21.4s-18.8-29.3-24.6-33s-5.8,7.8-21.4,6.8s-60.2-5.8-68-4.2
		c-7.8,1.6-18.3,11-13.1,12c5.2,1-26.7,8.4-51.8,23c-25.1,14.6-50.2,38.7-64.9,43.9s-8.4,15.7-33,23.5c-24.6,7.8-80,39.2-97.8,46
		c-17.8,6.8-26.2,13.6-37.7,16.7c-11.5,3.1-12-8.4-20.4-7.3c-8.4,1-1,17.3-12.6,22c-11.5,4.7-25.6-7.3-29.3,0
		c-3.7,7.3,1,14.6-4.2,16.7c-5.2,2.1-38.7,11.5-38.7,11.5s22.5-2.6,22.5,0c0,2.6-113,74.8-117.2,77.4
		c-4.2,2.6,131.8-12.6,142.3-13.6c10.5-1-86.8,37.7-74.8,37.7s159-19.9,228.1-45.5s159-59.1,197.2-73.2s109.3-20.9,124.5-51.3
		s1.6-44.5,5.8-49.2c4.2-4.7,9.9-1,9.9-14.6s-14.1-28.8-16.2-28.8C1303.9,2180.5,1290.3,2186.3,1287.7,2185.2z"/>
	<path fill="#F9A747" d="M1505.8,2619.9c-7.3,5.8-109.8,103.6-183.1,176.8c-73.2,73.2-230.7,218.1-238.5,221.8
		c-7.8,3.7,61.2-60.7,52.8-62.8c-8.4-2.1-59.1,52.3-75.8,59.1c-16.7,6.8,25.1-29.8,19.9-36.1c-5.2-6.3-103.6,72.7-115.1,75.3
		c-11.5,2.6,65.4-61.2,66.4-63.8s-12-4.7-13.6-8.9c-1.6-4.2,166.9-206.1,261.5-303.9c94.7-97.8,160.6-141.2,161.1-145.9
		c0.5-4.7-2.1-16.2,11-22c13.1-5.8,36.6,31.4,36.6,42.4c-2.1,11.5,0.5,34,11,43.4C1510.5,2604.7,1512.6,2615.7,1505.8,2619.9z"/>
	<path fill="#F9A747" d="M1896.6,2855.3c5.9,4.7,23.9-0.4,24.3-5.5c0.4-5.1-2-17.3,3.5-22.4c5.5-5.1,11.8-8.6,11.8-11
		s-16.9-19.6-19.8-23.9s-12.7-31-30.8-47.1s-30.6-27.9-39.6-31c-9-3.1-32.2,15.3-33,21.2c-0.8,5.9,7.1,12.9,7.1,18.4
		c0,5.5-39.6,82.4-49.4,112.2c-9.8,29.8-43.7,104.1-65.1,165.3c-21.4,61.2-67.5,195.6-80,232.2c-12.6,36.6-59.6,176.3-63.3,188.3
		c-3.7,12,4.7,17.4,11,17.1s63.8-70.9,72.7-101.8c8.9-30.9,43.9-116.6,56.5-143.8c12.6-27.2,75.8-166.9,107.2-222.8
		C1841.1,2944.7,1896.6,2855.3,1896.6,2855.3z"/>
	<path fill="#F9A747" d="M2289.8,2713.5c3.9-7.1,34-21.4,69.7-26.5c35.7-5.1,58.5,0.8,61.6,6.3c3.1,5.5,4.3,40.8,7.5,44.3
		c3.1,3.5,12.2-5.5,12.2-2c0,3.5,1.6,38.1-3.5,42.4c-5.1,4.3-3.5,34.9,0.8,55.3s26.5,100.9,32.8,187.3s4.2,130.8,4.2,130.8
		s-45.5-47.1-81.6-155.3c-36.1-108.3-63.3-187.8-79.5-226.5C2297.7,2730.8,2289.8,2713.5,2289.8,2713.5z"/>
	<path fill="#F9A747" d="M2715.1,2416.4c-12-1-34,4.2-34,12.6s39.2,48.1,80.5,77.9s171,88.4,210.3,108.3s83.7,46.6,83.7,46.6
		s-28.2-81.7-72.7-122.7s-42.4-40.5-62.2-48.3c-19.9-7.8-61.2-35-82.1-50.2s-43.9-30.3-66.4-35.6s-72.7-2.6-68,3.7
		S2715.1,2416.4,2715.1,2416.4z"/>
	<path fill="#F9A747" d="M2800.9,2033c0,0,54.1,73.8,122.4,89.4c68.3,15.7,211.1,29,269.1,22c58.1-7.1,189.9,15.7,203.2,14.9
		c-6.3-27.5-36.9-62.8-104.3-80c-67.5-17.3-251.8-22.8-279.3-27.5s-82.4-18.8-124.7-33C2844.8,2004.8,2800.9,2033,2800.9,2033z"/>
</g>
</svg>
