<?xml version="1.0" encoding="utf-8"?>
<!-- Generator: Adobe Illustrator 27.7.0, SVG Export Plug-In . SVG Version: 6.00 Build 0)  -->
<svg version="1.0" id="Layer_1" xmlns="http://www.w3.org/2000/svg" xmlns:xlink="http://www.w3.org/1999/xlink" x="0px" y="0px"
	 viewBox="0 0 4000 4000" enable-background="new 0 0 4000 4000" xml:space="preserve">
<g>
	<radialGradient id="SVGID_1_" cx="2299.3411" cy="1556.3315" r="648.6517" gradientUnits="userSpaceOnUse">
		<stop  offset="0" style="stop-color:#F3C191"/>
		<stop  offset="1" style="stop-color:#EE862B"/>
	</radialGradient>
	<path fill="url(#SVGID_1_)" d="M2948,1565.6c-5,354-293.5,639.4-648.6,639.4c-358.2,0-648.7-290.4-648.7-648.7
		c0-82.1,15.3-160.7,43.1-233l352.7-20.4l-336.8-17.3c102.6-223,328-377.9,589.6-377.9c222.6,0,419,112.1,535.9,283l-156.5,10.2
		l170.5,11.2c57.3,91.3,92.5,198,98.1,312.4l-354,21.7L2948,1565.6z"/>
	<g>
		<path fill="#F9A747" d="M2084.9,2820.6c-4,0-18.3-1.5-24.7-12.3c-4.2-8.4-4.8-20.7-5-24.8s0.1-7.2,0.5-8.2
			c1.4-3.1,13.6-7.4,20-8.6c6.4-1.2,14.6-0.9,17.3-0.6c2.8,0.3,11.2,6.4,13.2,11.3c2,4.9,3.2,8.4,5.6,22.6
			c2.4,14.3,2.4,21.9,0.9,29.4s-5.8,20.4-21,27.2s-29.7,6.6-42.7,5.5c-13-1.2-28.6-10.6-35.3-20.8c-6.6-10.2-13-27.3-11.7-44.1
			c1.3-16.8,8.3-35.1,18.2-47.8c9.9-12.7,26.9-28.2,49.2-32c21.7-3.8,39.9,2.5,47.2,4.9c7.4,2.4,25.7,14.9,35,29.4
			c9.3,14.5,14,24.5,15.5,35s1.2,31-3.1,47.1c-4.3,16.1-13.4,37.2-26.4,51.8c-13,14.6-30.7,22-33.1,23.2s-3.8,2.6-7.4,2.8
			s-17.3,6.1-21,7.7c-2.6,0.7-8.6-1.2-15,0.5c-6.4,1.7-9.4,3.1-14.2,3.6s-10.5,0.2-15.3-0.3c-4.7-0.5-15.5-0.3-21.2-1.4
			s-8.2-2.6-10.6-3.6c-2.5-1.1-4-6-6.5-7.2c-2.5-1.2-3.7,0.1-6.5-1.2s-4.1-3.3-7.8-3.4c-4.4-5.7-13.5-16.4-18.5-26.3
			c-5-9.8-6.3-20.1-7.9-22.5c-1.6-2.5-1.6-2.9-1.6-6.3c0-3.4-2.6-7.3-4.3-8.6c-1.8-1.3-0.9-6.3-0.7-6.9c0.2-0.6,1.6-1.8-0.3-4.7
			s0-10.6-0.1-13c-0.1-2.4,2.1-12.2,3.2-19.3c1.2-7.1,3.3-21.8,3.8-23.4c0.4-1.6,3-0.1,4-1c1-1,5.8-9.8,8-12.3
			c2.3-2.5,1.7-4,1.5-5.6c-0.2-1.6,0.8-6.1,3.5-9c-2.9,2.1-8,8.7-11,13.6c-0.7-3.2,5-14.3,9.4-21.1s15.4-18.9,21.2-24.7
			c5.8-5.7,13.2-11.9,15-12.7c1.8-0.8,5.5,0.8,8.8-1.4c3.2-2.2,5.4-5.1,5.8-5.3c0.4-0.2,8.6-0.5,10.2-0.5c1.7,0,1.4-6.3,1.6-6.6
			c0.2-0.3,13.3-5.7,20.8-8.4c7.5-2.7,16.6-3,22.2-3.2c5.6-0.3,20.1-0.1,33.3,3.4c13.2,3.5,28.1,8.1,28.1,8.1
			c-11-7.2-27.4-17.6-49.1-20.7c-18.6-1.5-35.3-0.9-45.2,2.7c-9.9,3.5-12.9,5.1-14.6,5.8c-1.7,0.7-9.2,2.7-14,6.3
			c-4.8,3.6-14.8,13.1-17.6,15.2c-2.9,2.1-6.5,3.7-7.7,4.6c-1.2,0.9,3.3,0.8,3.3,0.8s-0.8,1.4-2.8,2.5c-2,1.1-2.7,0-4.7,1.2
			c-2.1,1.2-2.8,2.4-2.8,2.4s4.2,0.3,4.7,1c0.5,0.7-4.5,5.3-5.3,6.4s-3.5,1.1-3.9,1.9c-0.4,0.8-2.6,4.1-3,5c-0.4,0.9-2.9,1-3.3,0.7
			c-0.5-0.3,0-2.5-0.4-3.2c-0.4-0.8-1.2-2.7,1.6-2.4s-3.8-2.3-5.8-0.3s-7.2,7.8-10.3,13.7s-7,11.5-8.1,18.1
			c-2.4-0.6-4.7,1.3-5.3,3.9c-0.6,2.7-4,8.6-3.8,12.6c0.2,4-2.6,8.4-2.6,11.8c0,3.4-3.5,19.1-3.6,26.9c-0.1,7.8-1.7,14.5-0.6,24.1
			c1.1,9.6,3.6,20.8,4.2,23.9c0.6,3.1,3.5,8.1,2.7,13.3c-2.2-2.5-3-7.7-3-7.7c-1,0.5-1.4,3.8,2.2,12.3c3.5,8.5,8.4,19.7,12,25.4
			c3.6,5.7,6.2,11.1,13.1,15.9s12.8,7.4,19.1,11.3s10,8.7,23.5,12.5c13.5,3.8,28.3,5.1,36.2,5c0.4-3.1,2.1-4.7,7.3-3.9
			c5.2,0.8,18.3-0.2,28.5-0.6c10.2-0.4,16-1.2,22.5-3.1c6.5-1.9,18.7-6.6,26.6-9.1s17.3-8.5,23.4-13.2c6.1-4.7,28.2-25,35.9-47.5
			c6.9-21,7.7-36.9,6.8-51.2c-0.9-14.3-5-35.7-20.2-55.9c-15.2-20.2-29.4-37.2-59.3-46.2c-22-4.9-39.4-4-55.9,1.5
			c-16.5,5.5-38.4,26.4-44.4,34c-6.1,7.5-16.1,25.5-18.9,45c-2.8,19.5,0,34.2,5.6,47.2c5.6,13,24.2,38.7,56.4,42.1
			c24.1,2.2,35.9-1.6,42.1-2.4c6.2-0.7,15.4-4,29.7-29.5c10.6-20.7,7.4-37.5,6.9-41.3c-0.4-3.8-1.5-16.1-4.4-24.2
			c-3-8.1-8.2-16.3-20.9-23c-12.7-6.7-22.1-8.2-38.9-3.4c-12.1,4.3-15.1,7.9-16.3,12c-1.3,4.1-0.6,11.8,0.1,20.1
			c0.7,8.3,0.6,17.2,4.4,22.6s11.4,11.9,18.2,13C2082.3,2825.3,2085.3,2823.8,2084.9,2820.6z"/>
		<path fill="#F9A747" d="M2200.2,2758.2c-0.1-1-7.1-0.9-7.8-1.6c-0.7-0.7-0.8-3.7,1.9-4c2.7-0.3,8.4-1,12.9-3.5
			c4.5-2.5,7.5-4.1,8.9-4.4c1.4-0.4,10.3-0.5,17.8-0.8c7.5-0.3,27.6-2.4,36.8-3.4c9.3-1,22.4-4.8,27-3.7
			c-3.9,2.8-16.7,7.7-31.3,13.4c-14.6,5.7-27.5,11-44.3,15.4c-16.8,4.3-23.6,3.4-25.5,1.6
			C2194.8,2765.1,2200.5,2760.3,2200.2,2758.2z"/>
		<path fill="#F9A747" d="M2190.2,2710.6c1.4-2,11.1-17.3,17.8-25s19.1-19.4,29.7-28.2c10.6-8.9,19.3-15,24.1-18.3
			c4.8-3.3,6.2-5.1,5.5-6.8c-0.7-1.7-8.6-1.4-17.8,4.3c-9.2,5.7-13.6,6.5-27.9,19.2c-14.3,11.6-24.4,20.6-28.1,23.2
			s-10.9,8.8-13.5,10.3s-4.1,2.6-5.4,2.6s-5.9,0.4-7.4,1.5s-2.4,3-4,3.4c-1.7,0.5-6.8,2.9-7.3,3.3c-0.5,0.5,3.5,0.3,5.2,2.2
			c1.7,1.9,1.9,5.4,1.6,5.9c-0.3,0.5-6.1,4.2-6.1,4.2s1.8-0.2,2.3,1.4c0.5,1.6,1.1,4.4,1.7,4.7c0.6,0.3,6.2,1.6,10.5-0.8
			C2175.3,2715.5,2189.1,2711.5,2190.2,2710.6z"/>
		<path fill="#F9A747" d="M2124.3,2667.8c0,0,11.9-10.5,12.9-11.5c1-1,9.5-25.7,13.8-38.9c4.2-13.2,15.1-50.4,15.1-50.4
			c-17.7,26.3-26.6,50.3-33.7,65.7S2124.1,2661.8,2124.3,2667.8z"/>
		<path fill="#F9A747" d="M2078.2,2661.6c-1.4,1.1-5.5-0.4-6.9-2.7c-1.4-2.3-2.3-7.6-3.4-8.4c-1.2-0.8-1.4,2-3,1.8
			c-1.6-0.2-2.2-1.8-3.2-1.9s-2.4-5.3-3.1-14.2c-0.8-9-2-33.3-1.7-46.4c0.3-13.1,0.3-40.3,0.6-41.2s1.8,11.9,1.7,12.3
			s0.3-6.6,0.9-7.4c0.6-0.8,1.8,7.3,1.9,8.8s-0.4-20.2,0-22.4c0.4-2.3,1.9,9.2,3.3,20.1s5.6,29.1,6,34.3s1,15.8,1.5,17.7
			c0.5,1.9,2.7,0.4,2.7,1.4c0,1,1.1,6.1,1.1,6.1l-2.7-0.2c0,0,0.5,8.9,2.1,14.2c1.6,5.3,4.5,11.1,4.8,12.8s0,6.7,0,6.7s-2.2,0-2.6,2
			C2077.7,2656.8,2077.6,2660,2078.2,2661.6z"/>
		<path fill="#F9A747" d="M1992.2,2665.2c2.5,1.6,6-0.6,7.2-2.1c1.2-1.5,0.9-4.7,0.4-5.6c-0.5-0.9-1.1-5.3-1.1-5.3l-1.7,1.6
			c0,0-8.9-13.1-15.3-24.5c-6.4-11.4-13-23.2-17.7-32.6c-4.7-9.3-10.7-23.7-10.7-23.7s6.3,19.3,7.6,25.3c1.3,6,3.9,14.9,3.9,14.9
			l-4.9-9.5c0,0,5.7,17.2,9.8,27.8S1983,2659.2,1992.2,2665.2z"/>
		<path fill="#F9A747" d="M1937.3,2721.6c1,0.2,6.3-0.7,8.2-1.8c1.9-1.1,0.8-3.7,0-4.7c-0.8-1-6.1-1.9-6.2-2.5
			c-0.1-0.6-0.1-1.3,0.8-1.4s3,0,3,0s0-3.3-1.2-4.2c-1.2-0.9-4.4-0.7-5.1-1.6c-0.7-0.9,0.2-2.4,0-3.2s-5.2,0.7-9.7,0.4
			c-4.4-0.4-16.1-6.1-23.1-12.3s-18.2-14.8-19.6-16.2c-1.3-1.3-2,1-4.4-0.5c-2.4-1.5-10-8.8-11.1-9.2c-1-0.4,7.8,12,10,13.4
			s14.2,12.2,14.4,13.7c0.2,1.6-10.8-7.7-11.8-8c-1-0.3,11.1,10.8,10.2,12.5s-12.4-11.4-13.5-11.5c-1.1-0.1,7.3,9.8,13.6,16.2
			c6.3,6.4,9.7,11,15.5,16.8c5.8,5.8,16.2,12.3,20.1,14.5c3.9,2.3,9,3.2,9,2.6c0-0.6,2.7-3.8,1.3-6.3
			C1936.2,2725.8,1937.3,2721.6,1937.3,2721.6z"/>
		<path fill="#F9A747" d="M1920.4,2786.9c-1-2.2,0.8-4,2.3-5.1s1.8-3-0.3-4.5c-2.1-1.5-8.7-3.2-9.5-5.3c-0.8-2.1,1.2-2.5,1.7-4
			c0.4-1.6-0.8-5.9-1.9-4.5c-1.1,1.4,0.3,4.2-1.5,3.3c-1.9-0.8-6.3-0.2-6.9,0.5c-0.6,0.7-0.2,2.2-2.7,1.8
			c-2.4-0.4-25.2-0.2-30.9-0.6c-5.7-0.4-28.8-0.2-41.3-2.6c-12.5-2.4-39.8-9.3-40.1-9.3c-0.4,0,4,3.9,11.5,5.9
			c7.5,2,18.8,8.6,40.2,12.6c-2,0.1-14.9-0.9-16.5-0.6c-1.7,0.3,5.7,4.2,18.6,7.4s23.3,5.8,48.8,5.5
			C1917.3,2786.9,1920.4,2786.9,1920.4,2786.9z"/>
		<path fill="#F9A747" d="M1917.7,2850.8c-1.6-0.6,2.5-3,2.6-4c0.1-1.1-3.5-5.5-4.6-6.2c-1.1-0.7-1.1,1.5-4,1.3s-11.3-1.1-12.8-0.8
			c-1.5,0.3-3.4,2.1-2.5,2.3c1,0.2-5,1.6-9.7,4.3s-9.4,7.3-12.2,8.3c-2.8,1-1.6,3-6.2,4.4s-15.1,7.4-18.4,8.7s-4.9,2.6-7.1,3.1
			c-2.2,0.6-2.3-1.6-3.8-1.4c-1.6,0.2-0.2,3.2-2.4,4.1c-2.2,0.9-4.8-1.4-5.5,0s0.2,2.8-0.8,3.1c-1,0.4-7.3,2.2-7.3,2.2
			s4.2-0.5,4.2,0c0,0.5-21.3,14.1-22,14.6s24.8-2.4,26.8-2.6s-16.3,7.1-14.1,7.1s29.9-3.7,42.9-8.6c13-4.8,29.9-11.1,37.1-13.8
			c7.2-2.7,20.6-3.9,23.4-9.6s0.3-8.4,1.1-9.3s1.9-0.2,1.9-2.8s-2.7-5.4-3.1-5.4C1920.7,2849.9,1918.2,2851,1917.7,2850.8z"/>
		<path fill="#F9A747" d="M1958.7,2932.6c-1.4,1.1-20.7,19.5-34.4,33.3c-13.8,13.8-43.4,41-44.9,41.7c-1.5,0.7,11.5-11.4,9.9-11.8
			c-1.6-0.4-11.1,9.8-14.3,11.1c-3.1,1.3,4.7-5.6,3.7-6.8c-1-1.2-19.5,13.7-21.6,14.2s12.3-11.5,12.5-12c0.2-0.5-2.3-0.9-2.6-1.7
			c-0.3-0.8,31.4-38.8,49.2-57.2c17.8-18.4,30.2-26.6,30.3-27.5c0.1-0.9-0.4-3.1,2.1-4.1c2.5-1.1,6.9,5.9,6.9,8
			c-0.4,2.2,0.1,6.4,2.1,8.2C1959.6,2929.7,1960,2931.8,1958.7,2932.6z"/>
		<path fill="#F9A747" d="M2032.2,2976.8c1.1,0.9,4.5-0.1,4.6-1s-0.4-3.2,0.7-4.2c1-1,2.2-1.6,2.2-2.1c0-0.4-3.2-3.7-3.7-4.5
			c-0.6-0.8-2.4-5.8-5.8-8.9c-3.4-3-5.8-5.2-7.5-5.8c-1.7-0.6-6.1,2.9-6.2,4c-0.1,1.1,1.3,2.4,1.3,3.5s-7.5,15.5-9.3,21.1
			s-8.2,19.6-12.3,31.1c-4,11.5-12.7,36.8-15.1,43.7c-2.4,6.9-11.2,33.2-11.9,35.4c-0.7,2.3,0.9,3.3,2.1,3.2s12-13.3,13.7-19.1
			c1.7-5.8,8.3-21.9,10.6-27.1c2.4-5.1,14.3-31.4,20.2-41.9C2021.8,2993.7,2032.2,2976.8,2032.2,2976.8z"/>
		<path fill="#F9A747" d="M2106.2,2950.2c0.7-1.3,6.4-4,13.1-5c6.7-1,11,0.1,11.6,1.2c0.6,1,0.8,7.7,1.4,8.3c0.6,0.7,2.3-1,2.3-0.4
			c0,0.7,0.3,7.2-0.7,8c-1,0.8-0.7,6.6,0.1,10.4c0.8,3.8,5,19,6.2,35.2s0.8,24.6,0.8,24.6s-8.6-8.9-15.4-29.2s-11.9-35.3-15-42.6
			C2107.7,2953.4,2106.2,2950.2,2106.2,2950.2z"/>
		<path fill="#F9A747" d="M2186.2,2894.3c-2.3-0.2-6.4,0.8-6.4,2.4c0,1.6,7.4,9.1,15.2,14.7c7.8,5.6,32.2,16.6,39.6,20.4
			c7.4,3.7,15.7,8.8,15.7,8.8s-5.3-15.4-13.7-23.1s-8-7.6-11.7-9.1c-3.7-1.5-11.5-6.6-15.4-9.4s-8.3-5.7-12.5-6.7
			s-13.7-0.5-12.8,0.7C2185,2894,2186.2,2894.3,2186.2,2894.3z"/>
		<path fill="#F9A747" d="M2202.4,2822.2c0,0,10.2,13.9,23,16.8s39.7,5.5,50.6,4.1c10.9-1.3,35.7,3,38.2,2.8
			c-1.2-5.2-6.9-11.8-19.6-15.1c-12.7-3.2-47.4-4.3-52.5-5.2c-5.2-0.9-15.5-3.5-23.5-6.2S2202.4,2822.2,2202.4,2822.2z"/>
	</g>
	<g>
		<path fill="#6C0B11" d="M551.8,2758.2c-0.2-16.1-1.7-31-4.3-46.9c-4.1-24.8-11.8-49.9-29.1-68.8c-16-17.5-38-27.2-58.3-27.5
			c-4.9-0.1-18.1-0.2-21,4.6c-3,5-11.1,283.3-12.2,322.3c-0.1,2.6,1.9,4.8,4.5,5c17.3,1.4,37.1-0.2,47-3.1c17.3-5.2,32-15.1,43-29.7
			c14.6-19.3,21.5-43.7,25.2-67.1C551.4,2817.8,552.2,2788,551.8,2758.2z M522.5,2831.3c-4,46.8-20.2,71.2-36.3,84.8
			c-13.7,11.6-31.9,10-31.9,10l7.7-285.8c0,0,41.5,7.2,52.4,45.5C525.3,2724.1,526.5,2784.6,522.5,2831.3z"/>
		<path fill="#6C0B11" d="M706.8,2951.5c-0.8-6-3.6-56.5-8.5-98.4c-4.8-41.9-11.8-108.2-26.9-185.6c-15-77.4-25.3-77.9-33.9-77.9
			c-8.6,0-14.5,16.1-18.3,37.6c-3.8,21.5-37.6,252.1-45.1,303.2c-2.1,14.1,3,22.1,11.6,22.1c8.6,0,15-8.9,16.9-25
			c1.9-16.1,6.7-56.2,8.6-56.7c1.9-0.5,63.4,1.3,63.4,1.3s6.7,67.5,7,79.4C686.5,2967.7,707.6,2957.5,706.8,2951.5z M617.1,2844.1
			l23.9-203.9l27.9,203.9H617.1z"/>
		<path fill="#6C0B11" d="M883,2891.8c0,0,2.8-105.2,6.9-159.7c4-54.4,6.3-109.5,8.2-114.1c1.9-4.6,25-9.4,27.7,4
			c-0.5,27.7-9.7,95.2-11.7,141.1c-2,46-2.8,127.8-2.8,152.4c0,8.8-0.2,17.6-0.7,26.3c-0.4,9,2.4,24.8-8.1,29.2
			c-7.9,3.3-19.1-1.5-22-9.6c-17.8-48.9-50.6-136.8-54.2-141.1c-1.3,3.5-13.4,86.5-17.7,116.4c-4.3,29.8-9.9,36-19.9,37.1
			s-14.5-10.2-19.4-47.8s-23.4-142.7-33.5-201.6s-17.7-81.8-17.3-87.1c0.4-5.2,23.7-14.8,28.5-1.3c4.8,13.4,25.9,115.8,32.8,174.3
			c6.9,58.5,11.7,72.6,11.7,72.6c3.5-28.7,7.3-57.5,12.6-85.9c1-5.6,1.9-14.4,4.5-19.6c6.9-13.9,22.7-8.4,28.6,1.6
			c2.9,4.8,5.1,10.1,7.4,15.2c6.9,15.4,13.1,31.1,19.2,46.8C870.3,2857.9,876.7,2874.8,883,2891.8z"/>
		<path fill="#6C0B11" d="M969.5,2955.2c-1.9-3.2-1.9-7-1.5-10.6c0.4-4,0.6-7.9,0.6-12c0.2-9.8-0.5-19.5-0.3-29.3
			c0.2-10,0.5-20.1,0.5-30.1c0-2.3,0.1-4.7,0.1-7c0.3-19.8,0.7-39.6,1-59.3c0.3-17.9,0.6-35.8,1-53.6c0.3-11.8,0.5-23.7,1-35.5
			c0.1-1.2,0.1-2.5,0.2-3.7c1.6-29.4,1.3-72.9,2.6-79.6c0.7-11,22.2-14.7,30.3-1.4c6.7,16.8,59.4,157.2,71.9,195.9
			s18.1,44.2,18.1,44.2s3.2-102.1,4.8-147c1.6-44.9,2.7-90.6,7.5-95.4s21.5-6.7,23.1,12.9c1.6,19.6-5.6,62.4-7.3,116.4
			c-1.4,47.2-5,161.5-5.9,189.5c-0.1,4.7-4.5,8.2-9,7c-8.2-2.2-18-12.5-25.8-39.3c-10.9-37.5-85.9-231.4-85.9-231.4
			s-0.4,114.9-0.4,150.8v114c0,4.1-2.9,7.5-6.9,8.2c-5.6,0.9-10.8,1.7-16.2-0.6c-1.1-0.5-2.2-1.2-3-2.1
			C969.9,2955.8,969.7,2955.5,969.5,2955.2z"/>
		<path fill="#6C0B11" d="M1187.5,2961.1c-5.9,0.2-10.7-4.4-10.8-10.3c-0.4-64.5-3.1-304.8-3.5-308.6c-0.4-4,1.6-12.9,16.1-13.7
			c14.5-0.8,69.3,0,74.6,0c5.2,0,8.5,8.9,8.5,17.3s-12.9,8.9-26.2,8.9c-13.3,0-45.2,0-45.2,0v143.5c0,0,40.3-6,52.4-7.4
			c12.1-1.4,13.3,7.4,13.3,13.1s-8.1,10.5-25.8,13.3s-37.9,5.2-37.9,5.2v111.3c0,0,64.1-4.4,69.3-1.6s8.9,10.1,6.9,17.3
			c-2,7.3-10.9,9.9-29.8,9.9C1235.8,2959.4,1204.1,2960.5,1187.5,2961.1z"/>
		<path fill="#6C0B11" d="M2506.4,2961.1c-5.9,0.2-10.7-4.4-10.8-10.3c-0.4-64.5-3.1-304.8-3.5-308.6c-0.4-4,1.6-12.9,16.1-13.7
			c13.6-0.8,27.2-0.4,40.8-0.3c7.4,0,14.8,0.1,22.2,0.2c6.1,0.1,12.8-1.1,17,4.3c4.2,5.4,4.5,15-1.6,19.1c-5.9,4-14.9,2.9-21.6,2.9
			c-13.3,0-45.2,0-45.2,0v143.5c0,0,40.3-6,52.4-7.4c12.1-1.4,13.3,7.4,13.3,13.1s-8.1,10.5-25.8,13.3c-17.7,2.8-37.9,5.2-37.9,5.2
			v111.3c0,0,64.1-4.4,69.3-1.6c5.2,2.8,8.9,10.1,6.9,17.3c-2,7.3-10.9,9.9-29.8,9.9C2554.7,2959.4,2523,2960.5,2506.4,2961.1z"/>
		<path fill="#6C0B11" d="M1337,2615.7c7.1,0.8,12.3,7.3,12.3,14.4c0.1,30.2,0.8,139.6,0.8,145.2c0,6.2-4.3,12.6-12.9,12.6
			c-8.6,0-14-4.3-13.7-25.5c0.3-21.2,0.5-133.9,0-139.8C1323.2,2618.9,1329.8,2614.8,1337,2615.7z"/>
		<path fill="#6C0B11" d="M1468.8,2655.5c9.3,8.1,23.4,3.2,22.2-13.7c-0.5-7.2-5.7-13.4-10.8-18c-13-11.8-30.7-19.6-48.4-15.6
			c-23.2,5.3-36.3,27.7-39.3,49.9c-1.2,9.2-1.2,19.1,0.1,28.3c4.2,30.1,22.4,55,38.4,79.9c16,24.9,29.2,50.8,35,80.1
			c4.5,22.4,6.1,46.6-2,68.5c-3.7,10-12.6,22.6-24.4,23.6c-11.7,1-15.8-15.8-16.1-24.4c-0.5-15.6,1.1-22.6-5.9-33.3
			c-4.2-6.5-12.7-3.2-17.4,0.9c-10.5,9.3-7,24.6-3.9,36.4c3.5,13.4,9.3,26.9,19.6,36.5c15.2,14.2,38,11.2,52.8-1.8
			c9.6-8.4,16.7-19.6,21-31.6c6.3-17.3,6.3-35.4,5.7-53.5c-0.4-12.1-1.7-24.2-4.6-36c-8.2-32.4-28.5-59.3-46-87.2
			c-3.1-5-6.3-10-9.3-15.1c-17.5-29-19.1-68.8-10.8-85.2C1433.2,2627.7,1460,2626.6,1468.8,2655.5z"/>
		<path fill="#6C0B11" d="M1699.3,2915.1c7.8,8.9,12.1,15.3,25.5,15.9c18.9,0.8,30.1-19.2,31.5-35.6c1.9-22.3,0.5-45.3-7.4-66.4
			c-5.3-13.9-13.3-26.2-20.8-39c-18.6-31.6-40.1-64.9-28.8-103c2.5-8.6,6.8-16.7,12.8-23.5c11.8-13.3,29.8-20,47.3-20.4
			c9.4-0.2,29.6,3,27.5,16.9c-1.3,8.6-10.8,9.1-23.4,9.1c-13.8,0-30,5.8-35.1,19.5c-6.8,18.3-5.6,40.8,4.8,57.6
			c8.9,14.4,17.4,29,25.8,43.6c10.1,17.5,18.7,36.7,22.8,56.7c6.9,33.3,6.1,83.2-28.5,101.8c-10.4,5.6-22.5,7.2-34.1,6.2
			c-34.4-3-48.9-29-46.2-42.7S1692.3,2898.7,1699.3,2915.1z"/>
		<path fill="#6C0B11" d="M2637.1,2940.9c-0.8,14-0.3,33.6,19.7,25.5c3.7-1.5,7.2-3.6,9.5-6.9c5.8-8.3,3.7-23.8,4-33.9
			c0.4-11.2,0.8-22.4,1.2-33.5c1-28,1.9-56,2.9-84c1.1-32.7,2.1-65.4,3.5-98.1c0.7-17,1.3-34,1.7-50.9c0.3-14.6,7.9-41.9-15-39.9
			c-6.1,0.5-15.7,3.5-15.7,11C2648.9,2644.1,2637.1,2940.9,2637.1,2940.9z"/>
		<path fill="#6C0B11" d="M2395.1,2933.6c0,0-4.3-141-4.3-174s-3.6-127.9-4-140c-0.4-12-11.6-13.9-17.2-13.6s-11.3,4.6-11.8,19.9
			c-0.5,15.3,5.6,116.8,5.6,175.7c0,58.9,1.6,160.1,3.6,162.9s75-10.9,83.1-12.9c8.1-2,16.5-1.2,17.7-8.9
			c1.2-7.7-4.8-18.5-19.4-15.7C2434,2929.7,2400.3,2934.7,2395.1,2933.6z"/>
		<path fill="#6C0B11" d="M2760.5,2933.6c0,0-4.3-141-4.3-174s-3.6-127.9-4-140c-0.4-12-11.6-13.9-17.2-13.6s-11.3,4.6-11.8,19.9
			c-0.5,15.3,5.6,116.8,5.6,175.7c0,43.1-0.8,86.1,1.2,129.2c0.4,8.9-1.3,23.2,2,31.4c4.7,11.5,25.9,3.6,33.8,1
			c16.4-5.3,32.9-7.5,49.6-11.6c8.1-2,16.5-1.2,17.7-8.9c1.2-7.7-4.8-18.5-19.4-15.7S2765.6,2934.7,2760.5,2933.6z"/>
		<path fill="#6C0B11" d="M3041.2,2810.8c0,0,35.9,64.9,50,96c14.1,31,23.4,50.4,30.2,54.4c6.9,4,26.6,0.8,21-14.9
			s-35.1-66.9-47.6-90.3c-12.5-23.4-35.9-66.9-35.9-66.9s45.2-102.8,58.9-130.6c6.2-12.7,17.7-29.4,13.7-44.5
			c-1.9-7.1-9.1-14.9-16.8-10.9c-9.1,4.7-13.4,19.3-15.9,28.3c-5.2,19.4-46.4,113.3-57.7,134.7c-1.6-29-3.2-91.9-3.6-115.3
			s0.8-41-8.9-44.8s-22-1.6-21.5,19.9c0.5,21.5,5.9,169.6,9.7,230.3c2.3,36.4,3.8,72.9,4.1,109.4c0.1,7.2,7.9,9.9,14.2,8.9
			c7.6-1.2,11.1-7.7,11.2-15C3046.8,2937.4,3041.2,2810.8,3041.2,2810.8z"/>
		<path fill="#6C0B11" d="M3296.4,2864.2c-4.3-53.8-23.1-167.2-33.3-222c-10.2-39.8-17.7-50-30.6-50c-12.9,0-21,38.7-27.4,104.3
			c-6.5,65.6-32.3,215.6-34.4,236.5c-2.1,21,20.4,18.8,22.6,12.9c2.1-5.9,9.7-77.4,9.7-77.4l68.3,1.1c0,0,6.4,55.9,9.1,79
			c0.8,7,3.9,13.8,11.8,13.3c15.9-0.8,9.7-23.3,9-33.9C3299.7,2906.8,3298.1,2885.5,3296.4,2864.2z M3210.9,2842.7
			c0-6.4,25.7-197.8,25.7-197.8c12.8,62.9,30.2,197.8,30.2,197.8S3220,2849.2,3210.9,2842.7z"/>
		<path fill="#6C0B11" d="M3362.5,2773.3c0,0,2.8,50,5.6,92.3s4,62.9,0.4,68.9c-3.6,6-21,8.5-23.4-14.1
			c-2.4-22.6-9.7-120.1-13.7-182.6c-1.6-24.4-3.6-48.9-3.3-73.4c0.2-12.6,2.8-27.1,12.2-36.2c11.4-11.1,28.1-9.3,42.8-10
			c9.6-0.4,27.1-3.5,35.3,3.1c7.7,6,5.6,16.5-2.8,17.3c-8.5,0.8-48-0.8-53.6,3.2s-7.3,11.7-5.6,50.4s4.8,56.4,4.8,56.4
			s35.9,0,53.6-3.2c9.7,6.5,0.4,22.6-16.5,24.6C3381.5,2772.1,3362.5,2773.3,3362.5,2773.3z"/>
		<path fill="#6C0B11" d="M3466.8,2643.3c0,16.1,3.8,294.6,3.8,305.3c0,10.8,9.1,9.1,33.3,11.3s65.6-3.2,68.3-10.2
			c2.7-7-0.5-14-12.9-14.5c-12.4-0.5-64.5-0.5-64.5-0.5l1.1-112.4c0,0,37.6,2.2,54.8-5.4c17.2-7.5,8.6-26.3-2.7-23.9
			s-54.8,3.5-54.8,3.5l2.2-142.5c0,0,62.9,1.1,66.7,0s10.8-16.1,0.5-22s-61.3-2.2-77.4-2.7
			C3468.9,2628.8,3466.7,2636.3,3466.8,2643.3z"/>
		<path fill="#6C0B11" d="M3500.7,2586.3c-12.7,0-12.9-14-2.7-23.1s32.3-24.7,38.2-24.7c5.9,0,11.8,8.1,12.9,13.4
			C3550.1,2557.3,3507.6,2586.3,3500.7,2586.3z"/>
	</g>
	<path fill="#2DA9CC" d="M800.7,2491.4c103.2-44.3,295.9-125,531.4-138.7c208-4,379.8,26.6,506.4,58.1s300.8,89.5,300.8,89.5
		s-412-54.8-620.1-63.7S1042.6,2435.8,800.7,2491.4z"/>
	<path fill="#2BA7CB" d="M2315,2289.9c28.5,15.1,249.3,94.3,408.1,95.2c158.8,0.8,210.3-66.9,210.4-114.5
		c0.2-55.6-79.1-93.8-152.7-98.1c27.9,16,73.8,41.8,71.8,79.8c-0.8,15.8-13.6,28.9-26.1,37.4c-18.3,12.4-40.5,20-61.7,25.7
		c-36,9.5-73.5,13.9-110.7,14.6c-12.2,0.2-24.5,0.1-36.7-0.5C2479.5,2322.7,2315,2289.9,2315,2289.9z"/>
	<path fill="#224D30" d="M1866.3,2215.7c0,0,22.2-108.3,52.3-173.4c30.1-65,65.6-107,65.6-107s-4.6-9.9-3-24.7
		c0,0-39.5,15.2-58.9,32.9c0,0,4-25.7,15.3-38.3c0,0-44.9-1.3-77.1,29.3c0,0,6.2-26.9,28.8-40c0,0-36.6-11.3-86.3,6.2
		c0,0,22-32.8,77.1-36.3c55.1-3.5,99.7,21.5,99.7,21.5s-35.2-33.6-102.1-66.1c0,0,40.3-9.4,75-3c0,0-32.5-32.3-117.5-46.8
		c0,0,26.6-12.6,49.5-11.6c0,0-9.4-21.8-86.3-49.5c44.3-3.8,147-1.6,211.5,132.2c0,0-0.5-38.4-13-85.2c0,0,18.5,12.9,24.6,29.8
		c4.4-44.8-10.1-102.8-12.1-112.9c13.7,2.8,35.9,48.4,35.9,48.4s-0.4-58.9-18.1-90.7c51.2,13.3,67.3,66.5,60.9,118.1
		c-6.5,51.6-27,95.2-27,95.2s45.6-56,104.4-62.9c58.9-6.9,94.7,29.4,94.7,29.4c-41.9-10.5-85.5,5.6-93.9,12.1
		c46.8,6.9,64.1,19.4,64.1,19.4s-71-1.2-114.9,27.4c35.1,5.2,47.2,12.5,47.2,12.5s-31.4,2-54,11.7c0,0,172.6-14.9,176.6,109.7
		c0,0-28.8-37-87.4-56c29,28,37.6,56.7,37.6,56.7s-41.9-40-108.9-53.8c0,0,12.1,16.7,15.9,32.8c0,0-42.2-28-92.5-45.7
		c31.7,33.1,74.3,68.4,69.1,133.7c-5.2,54-42.3,67.3-42.3,67.3s9.7-67.3-31.4-127.4c0,0-2.8,8.9-19.8,41.9c0,0-8.1-74.6-3.2-112.1
		c0,0-10.2,4.3-21.5,4.3c0,0-30.9,38.4-55.9,123.1c-25,84.7-29,155.6-29,155.6L1866.3,2215.7z"/>
	<path fill="#224D30" d="M1402,2284.1c0,0-16.7-117.1-54-185.4c-26-47.5-53.3-78.3-53.3-78.3s3.1-7.7,1.3-18.8
		c0,0,30.3,10,45.6,22.7c0,0-4-19.2-12.9-28.3c0,0,33.8-2.6,59.2,19.3c0,0-5.6-20.1-23.1-29.2c0,0,27.2-9.8,65.3,1.6
		c0,0-17.8-23.9-59.5-24.6c-41.7-0.7-74.4,19.8-74.4,19.8s25.4-26.6,74.7-53.5c0,0-30.7-5.7-56.7,0.5c0,0,23.4-25.5,86.9-39.5
		c0,0-20.5-8.6-37.7-6.9c0,0,6.3-16.8,63.3-40.4c-33.6-1.2-111,4.1-154.8,107.3c0,0-1-29,6.8-64.7c0,0-13.5,10.4-17.5,23.4
		c-4.9-33.6,3.9-77.9,5.1-85.6c-10.2,2.6-25.3,37.8-25.3,37.8s-1.8-44.4,10.4-69.1c-38.1,11.9-48.4,52.6-41.7,91.3
		c6.7,38.7,23.8,70.8,23.8,70.8s-36.4-40.6-81-43.7s-70.4,25.6-70.4,25.6c31.3-9.4,64.7,1.2,71.3,5.8c-35,6.8-47.7,16.9-47.7,16.9
		s53.5-3.5,87.7,16.6c-26.3,5.2-35.1,11.1-35.1,11.1s23.8,0.4,41.2,6.9c0,0-130.7-5.1-129.3,89c0,0,20.4-28.9,63.9-45.4
		c-20.9,22.1-26.4,44.1-26.4,44.1s30.2-31.7,80.2-44.4c0,0-8.5,13-10.8,25.3c0,0,30.8-22.6,68.1-37.8
		c-22.7,26.1-53.6,54.3-47.3,103.3c5.9,40.6,34.3,49.3,34.3,49.3s-9.7-50.4,19.2-97.2c0,0,2.4,6.6,16.4,30.9c0,0,3.4-56.5-1.6-84.7
		c0,0,7.9,2.9,16.4,2.5c0,0,25.4,27.6,46.6,90.9c28.9,86.2,35.9,172.8,35.9,172.8L1402,2284.1z"/>
	<path fill="#224D30" d="M1760,2209c0,0,10.8-146.2,4.8-247.3c-5.9-101.1-18.3-237.1-67.5-326.6c0,0,19.8-12.1,15.7-36.3
		c23.4,13.3,76.2,56.8,89.1,75c3.6-24.6-5.6-53.2-12.1-61.7c19.8-4.4,81.2,25,117.3,82.7c4-31.9-16.1-65.7-36.7-80.2
		c42.3-2.8,105.6,25.8,144.7,48.4c-7.3-42.7-69.5-116.8-292.6-113.6c72.6-18.8,204.3-50.5,204.3-50.5s-89.5-31.4-105.6-46.4
		c18.9-21.8,123.8-28.6,203.6-20.2c-58.1-27.4-68.5-40.7-58.5-54.4c10.1-13.7,108.9-27,150.4-28.2c-86.3-31-178.2-37.5-281.8,12.1
		c-76.2,39.1-144.7,125.4-144.7,125.4c10.5-37.5,67.7-149.6,67.7-149.6c-22.2,4.8-50.9,32.7-50.9,32.7
		c14.2-53.6,64.6-168.1,74.7-180.6c0,0-72.2,62.9-78.2,66.9c-8.1-10.1,0-71,69.3-141.5c-48.4,2-120.7,32.8-150.3,147.3
		c0,0-18.8,79-3.8,197.3c-61.3-110.7-89.2-132.8-153.2-165s-164.5,7.5-164.5,7.5c53.2,8.1,109.7,24.7,144.6,65
		c-49.5-0.5-102.7-2.2-102.7-2.2s103.2,32.3,164,98.9c-29.6,3.2-67.2,2.2-67.2,2.2s64,32.8,75.3,48.4
		c-76.9-24.7-151.6-38.2-209.7-25.3c-58.1,12.9-109.7,48.9-134.4,115.6c34.9-29.6,112.9-50.5,167.2-44.6
		c-45.7,32.8-83.3,66.1-83.3,66.1s107.5-39.8,209.7-32.8c-23.7,19.4-50.5,43.5-50.5,43.5s117.2-19.9,183.8-28.5
		c-89.2,47.8-132.8,81.7-161.3,130.1c-28.5,48.4-34.4,118.3,9.1,181.7c6.5-46.2,72-146.8,119.9-181.7c8.1,49.5,10.8,65.6,10.8,65.6
		s52.1-128.6,61.8-176.6c10.7,9.7,30.6,18.2,30.6,18.2s22.6,45,26.9,149.8c4.3,104.8,5.4,162.9-7.5,279
		c-12.9,116.1-9.7,149.2-9.7,149.2L1760,2209z"/>
	<path fill="#116690" d="M1299.8,2309.2c62.4-35.1,197.4-96.3,409.3-103.2c143.3-4.7,286.1,17.8,421.9,63.6
		c102,34.4,192.1,73.4,274.3,98.5c124.2,37.9,420.6,101.1,720.6-22.6c0,0-244.9,175-573.3,182.5c-139.8,1.1-337.6-51.3-552.5-120.1
		C1785.3,2339,1691.7,2308.4,1299.8,2309.2z"/>
</g>
</svg>
