<?xml version="1.0" encoding="utf-8"?>
<!-- Generator: Adobe Illustrator 27.7.0, SVG Export Plug-In . SVG Version: 6.00 Build 0)  -->
<svg version="1.0" id="Layer_1" xmlns="http://www.w3.org/2000/svg" xmlns:xlink="http://www.w3.org/1999/xlink" x="0px" y="0px"
	 viewBox="0 0 32 32" enable-background="new 0 0 32 32" xml:space="preserve">
<g>
	<path fill="#F9A747" d="M17.9,16.3c-0.2,0-1.1-0.1-1.4-0.7c-0.2-0.5-0.3-1.2-0.3-1.4c0-0.2,0-0.4,0-0.5c0.1-0.2,0.8-0.4,1.2-0.5
		c0.4-0.1,0.8-0.1,1,0c0.2,0,0.6,0.4,0.8,0.7c0.1,0.3,0.2,0.5,0.3,1.3c0.1,0.8,0.1,1.3,0.1,1.7c-0.1,0.4-0.3,1.2-1.2,1.6
		c-0.9,0.4-1.7,0.4-2.5,0.3c-0.8-0.1-1.7-0.6-2-1.2c-0.4-0.6-0.8-1.6-0.7-2.6s0.5-2,1.1-2.8c0.6-0.7,1.6-1.6,2.8-1.9
		c1.3-0.2,2.3,0.1,2.7,0.3c0.4,0.1,1.5,0.9,2,1.7c0.5,0.8,0.8,1.4,0.9,2s0.1,1.8-0.2,2.7c-0.2,0.9-0.8,2.2-1.5,3
		c-0.8,0.8-1.8,1.3-1.9,1.3c-0.1,0.1-0.2,0.1-0.4,0.2c-0.2,0-1,0.4-1.2,0.4c-0.1,0-0.5-0.1-0.9,0c-0.4,0.1-0.5,0.2-0.8,0.2
		c-0.3,0-0.6,0-0.9,0c-0.3,0-0.9,0-1.2-0.1c-0.3-0.1-0.5-0.1-0.6-0.2c-0.1-0.1-0.2-0.3-0.4-0.4c-0.1-0.1-0.2,0-0.4-0.1
		c-0.2-0.1-0.2-0.2-0.5-0.2c-0.3-0.3-0.8-1-1.1-1.5c-0.3-0.6-0.4-1.2-0.5-1.3s-0.1-0.2-0.1-0.4s-0.1-0.4-0.3-0.5
		c-0.1-0.1-0.1-0.4,0-0.4c0,0,0.1-0.1,0-0.3c-0.1-0.2,0-0.6,0-0.8c0-0.1,0.1-0.7,0.2-1.1c0.1-0.4,0.2-1.3,0.2-1.4
		c0-0.1,0.2,0,0.2-0.1s0.3-0.6,0.5-0.7c0.1-0.1,0.1-0.2,0.1-0.3c0-0.1,0-0.4,0.2-0.5c-0.2,0.1-0.5,0.5-0.6,0.8
		c0-0.2,0.3-0.8,0.5-1.2c0.3-0.4,0.9-1.1,1.2-1.4c0.3-0.3,0.8-0.7,0.9-0.7c0.1,0,0.3,0,0.5-0.1C14,9.2,14.1,9,14.1,9
		c0,0,0.5,0,0.6,0s0.1-0.4,0.1-0.4c0,0,0.8-0.3,1.2-0.5C16.4,8,17,8,17.3,8c0.3,0,1.2,0,1.9,0.2c0.8,0.2,1.6,0.5,1.6,0.5
		c-0.6-0.4-1.6-1-2.8-1.2c-1.1-0.1-2-0.1-2.6,0.2c-0.6,0.2-0.7,0.3-0.8,0.3S14,8.1,13.7,8.3c-0.3,0.2-0.9,0.8-1,0.9
		c-0.2,0.1-0.4,0.2-0.4,0.3c-0.1,0.1,0.2,0,0.2,0s0,0.1-0.2,0.1c-0.1,0.1-0.2,0-0.3,0.1c-0.1,0.1-0.2,0.1-0.2,0.1s0.2,0,0.3,0.1
		c0,0-0.3,0.3-0.3,0.4c0,0.1-0.2,0.1-0.2,0.1c0,0-0.1,0.2-0.2,0.3c0,0.1-0.2,0.1-0.2,0c0,0,0-0.1,0-0.2c0,0-0.1-0.2,0.1-0.1
		c0.2,0-0.2-0.1-0.3,0c-0.1,0.1-0.4,0.5-0.6,0.8s-0.4,0.7-0.5,1c-0.1,0-0.3,0.1-0.3,0.2c0,0.2-0.2,0.5-0.2,0.7s-0.1,0.5-0.1,0.7
		C9.2,14,9,14.9,9,15.4c0,0.5-0.1,0.8,0,1.4s0.2,1.2,0.2,1.4c0,0.2,0.2,0.5,0.2,0.8c-0.1-0.1-0.2-0.4-0.2-0.4
		c-0.1,0-0.1,0.2,0.1,0.7c0.2,0.5,0.5,1.1,0.7,1.5c0.2,0.3,0.4,0.6,0.8,0.9s0.7,0.4,1.1,0.7c0.4,0.2,0.6,0.5,1.4,0.7
		c0.8,0.2,1.6,0.3,2.1,0.3c0-0.2,0.1-0.3,0.4-0.2c0.3,0,1.1,0,1.7,0c0.6,0,0.9-0.1,1.3-0.2s1.1-0.4,1.5-0.5c0.5-0.1,1-0.5,1.4-0.8
		c0.4-0.3,1.6-1.4,2.1-2.7c0.4-1.2,0.4-2.1,0.4-3c-0.1-0.8-0.3-2.1-1.2-3.2s-1.7-2.2-3.4-2.7c-1.3-0.3-2.3-0.2-3.2,0.1
		s-2.2,1.5-2.6,2c-0.4,0.4-0.9,1.5-1.1,2.6c-0.2,1.1,0,2,0.3,2.7s1.4,2.2,3.3,2.4c1.4,0.1,2.1-0.1,2.4-0.1c0.4,0,0.9-0.2,1.7-1.7
		c0.6-1.2,0.4-2.2,0.4-2.4c0-0.2-0.1-0.9-0.3-1.4s-0.5-0.9-1.2-1.3c-0.7-0.4-1.3-0.5-2.3-0.2c-0.7,0.3-0.9,0.5-0.9,0.7
		c-0.1,0.2,0,0.7,0,1.2c0,0.5,0,1,0.3,1.3c0.2,0.3,0.7,0.7,1.1,0.8C17.8,16.5,17.9,16.5,17.9,16.3z"/>
	<path fill="#F9A747" d="M24.6,12.7c0-0.1-0.4-0.1-0.5-0.1c0,0,0-0.2,0.1-0.2c0.2,0,0.5-0.1,0.7-0.2s0.4-0.2,0.5-0.3
		c0.1,0,0.6,0,1,0c0.4,0,1.6-0.1,2.1-0.2s1.3-0.3,1.6-0.2c-0.2,0.2-1,0.4-1.8,0.8c-0.8,0.3-1.6,0.6-2.6,0.9c-1,0.3-1.4,0.2-1.5,0.1
		C24.3,13.1,24.6,12.8,24.6,12.7z"/>
	<path fill="#F9A747" d="M24,9.9c0.1-0.1,0.6-1,1-1.4c0.4-0.4,1.1-1.1,1.7-1.6s1.1-0.9,1.4-1.1s0.4-0.3,0.3-0.4c0-0.1-0.5-0.1-1,0.3
		C26.9,6,26.7,6,25.8,6.7c-0.8,0.7-1.4,1.2-1.6,1.3c-0.2,0.2-0.6,0.5-0.8,0.6c-0.1,0.1-0.2,0.1-0.3,0.1c-0.1,0-0.3,0-0.4,0.1
		c-0.1,0.1-0.1,0.2-0.2,0.2c-0.1,0-0.4,0.2-0.4,0.2c0,0,0.2,0,0.3,0.1c0.1,0.1,0.1,0.3,0.1,0.3c0,0-0.4,0.2-0.4,0.2s0.1,0,0.1,0.1
		c0,0.1,0.1,0.3,0.1,0.3c0,0,0.4,0.1,0.6,0S24,10,24,9.9z"/>
	<path fill="#F9A747" d="M20.2,7.4c0,0,0.7-0.6,0.7-0.7c0.1-0.1,0.6-1.5,0.8-2.3s0.9-2.9,0.9-2.9c-1,1.5-1.5,2.9-1.9,3.8
		C20.3,6.3,20.2,7.1,20.2,7.4z"/>
	<path fill="#F9A747" d="M17.5,7.1c-0.1,0.1-0.3,0-0.4-0.2S17,6.5,16.9,6.4s-0.1,0.1-0.2,0.1c-0.1,0-0.1-0.1-0.2-0.1
		c-0.1,0-0.1-0.3-0.2-0.8c0-0.5-0.1-1.9-0.1-2.7s0-2.3,0-2.4c0-0.1,0.1,0.7,0.1,0.7c0,0,0-0.4,0.1-0.4c0,0,0.1,0.4,0.1,0.5
		c0,0.1,0-1.2,0-1.3c0-0.1,0.1,0.5,0.2,1.2c0.1,0.6,0.3,1.7,0.3,2c0,0.3,0.1,0.9,0.1,1s0.2,0,0.2,0.1c0,0.1,0.1,0.4,0.1,0.4l-0.2,0
		c0,0,0,0.5,0.1,0.8s0.3,0.6,0.3,0.7c0,0.1,0,0.4,0,0.4s-0.1,0-0.1,0.1C17.5,6.8,17.5,7,17.5,7.1z"/>
	<path fill="#F9A747" d="M12.6,7.3c0.1,0.1,0.3,0,0.4-0.1C13,7.1,13,6.9,13,6.8c0-0.1-0.1-0.3-0.1-0.3l-0.1,0.1c0,0-0.5-0.8-0.9-1.4
		s-0.8-1.3-1-1.9s-0.6-1.4-0.6-1.4s0.4,1.1,0.4,1.5C10.8,3.7,11,4.3,11,4.3l-0.3-0.6c0,0,0.3,1,0.6,1.6C11.5,5.9,12,6.9,12.6,7.3z"
		/>
	<path fill="#F9A747" d="M9.4,10.5c0.1,0,0.4,0,0.5-0.1c0.1-0.1,0-0.2,0-0.3c0-0.1-0.4-0.1-0.4-0.1c0,0,0-0.1,0-0.1s0.2,0,0.2,0
		s0-0.2-0.1-0.2c-0.1-0.1-0.3,0-0.3-0.1c0-0.1,0-0.1,0-0.2c0,0-0.3,0-0.6,0S7.9,9.1,7.5,8.7C7,8.4,6.4,7.9,6.3,7.8
		c-0.1-0.1-0.1,0.1-0.3,0C5.9,7.7,5.5,7.3,5.4,7.2C5.4,7.2,5.9,7.9,6,8s0.8,0.7,0.8,0.8c0,0.1-0.6-0.4-0.7-0.5
		C6.1,8.3,6.8,9,6.7,9.1C6.7,9.2,6,8.4,6,8.4C5.9,8.4,6.4,9,6.7,9.3c0.4,0.4,0.6,0.6,0.9,1C8,10.6,8.6,11,8.8,11.1
		c0.2,0.1,0.5,0.2,0.5,0.1s0.2-0.2,0.1-0.4S9.4,10.5,9.4,10.5z"/>
	<path fill="#F9A747" d="M8.4,14.3c-0.1-0.1,0-0.2,0.1-0.3c0.1-0.1,0.1-0.2,0-0.3C8.4,13.7,8,13.6,8,13.5s0.1-0.1,0.1-0.2
		s0-0.3-0.1-0.3c-0.1,0.1,0,0.2-0.1,0.2c-0.1,0-0.4,0-0.4,0c0,0,0,0.1-0.2,0.1c-0.1,0-1.5,0-1.8,0c-0.3,0-1.7,0-2.4-0.2
		s-2.3-0.5-2.3-0.5s0.2,0.2,0.7,0.3c0.4,0.1,1.1,0.5,2.3,0.7c-0.1,0-0.9-0.1-1,0c-0.1,0,0.3,0.2,1.1,0.4s1.4,0.3,2.8,0.3
		S8.4,14.3,8.4,14.3z"/>
	<path fill="#F9A747" d="M8.2,18c-0.1,0,0.1-0.2,0.1-0.2s-0.2-0.3-0.3-0.4c-0.1,0-0.1,0.1-0.2,0.1c-0.2,0-0.7-0.1-0.7,0
		c-0.1,0-0.2,0.1-0.1,0.1c0.1,0-0.3,0.1-0.6,0.3c-0.3,0.2-0.5,0.4-0.7,0.5c-0.2,0.1-0.1,0.2-0.4,0.3c-0.3,0.1-0.9,0.4-1.1,0.5
		c-0.2,0.1-0.3,0.1-0.4,0.2c-0.1,0-0.1-0.1-0.2-0.1c-0.1,0,0,0.2-0.1,0.2c-0.1,0.1-0.3-0.1-0.3,0c0,0.1,0,0.2,0,0.2
		c-0.1,0-0.4,0.1-0.4,0.1s0.2,0,0.2,0c0,0-1.2,0.8-1.3,0.8c0,0,1.4-0.1,1.5-0.1c0.1,0-0.9,0.4-0.8,0.4s1.7-0.2,2.5-0.5
		s1.7-0.6,2.1-0.8s1.2-0.2,1.4-0.6c0.2-0.3,0-0.5,0.1-0.5s0.1,0,0.1-0.2S8.5,18,8.4,18C8.4,18,8.3,18,8.2,18z"/>
	<path fill="#F9A747" d="M10.6,22.8c-0.1,0.1-1.2,1.1-2,1.9S6.1,27.1,6,27.1s0.7-0.7,0.6-0.7S6,27,5.8,27.1C5.6,27.1,6,26.7,6,26.7
		c-0.1-0.1-1.1,0.8-1.3,0.8s0.7-0.7,0.7-0.7c0,0-0.1-0.1-0.1-0.1c0,0,1.8-2.2,2.8-3.3c1-1.1,1.7-1.5,1.8-1.6s0-0.2,0.1-0.2
		s0.4,0.3,0.4,0.5c0,0.1,0,0.4,0.1,0.5C10.7,22.6,10.7,22.7,10.6,22.8z"/>
	<path fill="#F9A747" d="M14.9,25.3c0.1,0.1,0.3,0,0.3-0.1c0-0.1,0-0.2,0-0.2s0.1-0.1,0.1-0.1c0,0-0.2-0.2-0.2-0.3s-0.1-0.3-0.3-0.5
		s-0.3-0.3-0.4-0.3c-0.1,0-0.4,0.2-0.4,0.2c0,0.1,0.1,0.1,0.1,0.2c0,0.1-0.4,0.9-0.5,1.2c-0.1,0.3-0.5,1.1-0.7,1.8s-0.7,2.1-0.9,2.5
		c-0.1,0.4-0.6,1.9-0.7,2.1s0.1,0.2,0.1,0.2c0.1,0,0.7-0.8,0.8-1.1s0.5-1.3,0.6-1.6c0.1-0.3,0.8-1.8,1.2-2.4
		C14.3,26.3,14.9,25.3,14.9,25.3z"/>
	<path fill="#F9A747" d="M19.2,23.8c0-0.1,0.4-0.2,0.8-0.3s0.6,0,0.7,0.1c0,0.1,0,0.4,0.1,0.5c0,0,0.1-0.1,0.1,0s0,0.4,0,0.5
		s0,0.4,0,0.6c0,0.2,0.3,1.1,0.4,2c0.1,0.9,0,1.4,0,1.4s-0.5-0.5-0.9-1.7c-0.4-1.2-0.7-2-0.9-2.5C19.2,24,19.2,23.8,19.2,23.8z"/>
	<path fill="#F9A747" d="M23.8,20.5c-0.1,0-0.4,0-0.4,0.1s0.4,0.5,0.9,0.8c0.5,0.3,1.9,1,2.3,1.2c0.4,0.2,0.9,0.5,0.9,0.5
		s-0.3-0.9-0.8-1.3s-0.5-0.4-0.7-0.5c-0.2-0.1-0.7-0.4-0.9-0.5c-0.2-0.2-0.5-0.3-0.7-0.4s-0.8,0-0.7,0S23.8,20.5,23.8,20.5z"/>
	<path fill="#F9A747" d="M24.7,16.4c0,0,0.6,0.8,1.3,1c0.7,0.2,2.3,0.3,2.9,0.2c0.6-0.1,2.1,0.2,2.2,0.2c-0.1-0.3-0.4-0.7-1.1-0.9
		c-0.7-0.2-2.7-0.2-3-0.3c-0.3-0.1-0.9-0.2-1.4-0.4C25.2,16.1,24.7,16.4,24.7,16.4z"/>
</g>
</svg>
